<svg width="1920" height="425" viewBox="0 0 1920 425" fill="none" xmlns="http://www.w3.org/2000/svg">
<g opacity="0.05" clip-path="url(#clip0_4077_90)">
<mask id="mask0_4077_90" style="mask-type:luminance" maskUnits="userSpaceOnUse" x="0" y="-241" width="1920" height="1080">
<path d="M1919.67 -240.566H0V838.974H1919.67V-240.566Z" fill="white"/>
</mask>
<g mask="url(#mask0_4077_90)">
<path d="M-540.027 238.597C-422.435 506.739 -256.393 777.502 -46.0905 785.77C304.824 799.565 487.598 71.046 767.779 103.809C1113.68 144.257 1103.28 1285.99 1506.99 1368.72C1715.94 1411.54 1948.18 1152.7 2116.88 917.165" stroke="#222222" stroke-width="4.61571" stroke-miterlimit="10"/>
<path d="M-528.911 220.488C-413.465 483.982 -249.663 751.753 -40.3583 762.049C312.057 780.487 501.007 58.8772 786.35 94.754C1130.44 138.018 1121.15 1252 1519.26 1332.38C1729.09 1374.16 1960.52 1113.71 2128.27 877.167" stroke="#222222" stroke-width="4.61571" stroke-miterlimit="10"/>
<path d="M-517.794 202.382C-404.496 461.227 -242.894 725.379 -34.6255 738.331C319.358 760.346 514.409 46.6674 804.921 85.7014C1147.21 131.692 1138.82 1219.06 1531.53 1296.05C1742.14 1337.34 1972.87 1074.72 2139.67 837.171" stroke="#222222" stroke-width="4.61571" stroke-miterlimit="10"/>
<path d="M-506.677 184.272C-395.526 438.469 -236.136 699.353 -28.8929 714.61C326.642 740.784 527.804 34.4113 823.492 76.646C1163.97 125.278 1156.62 1185.53 1543.8 1259.71C1755.25 1300.23 1985.21 1035.73 2151.07 797.172" stroke="#222222" stroke-width="4.61571" stroke-miterlimit="10"/>
<path d="M-495.561 166.163C-386.556 415.711 -229.375 673.352 -23.1607 690.889C333.933 721.257 541.195 22.1114 842.062 67.5912C1180.73 118.785 1174.42 1151.96 1556.07 1223.38C1768.36 1263.1 1997.55 996.735 2162.46 757.174" stroke="#222222" stroke-width="4.61571" stroke-miterlimit="10"/>
<path d="M-484.444 148.055C-377.586 392.955 -222.61 647.378 -17.4281 667.17C341.232 701.766 554.584 9.76829 860.633 58.5379C1197.5 112.218 1192.23 1118.36 1568.34 1187.04C1781.48 1225.96 2009.89 957.745 2173.86 717.177" stroke="#222222" stroke-width="4.61571" stroke-miterlimit="10"/>
<path d="M-473.328 129.947C-368.616 370.199 -215.843 621.427 -11.6956 643.45C348.537 682.311 567.972 -2.62008 879.204 49.4841C1214.27 105.579 1210.05 1084.72 1580.61 1150.7C1794.6 1188.81 2022.23 918.754 2185.26 677.179" stroke="#222222" stroke-width="4.61571" stroke-miterlimit="10"/>
<path d="M-462.211 111.837C-359.647 347.441 -209.075 595.499 -5.96333 619.728C355.845 662.89 581.36 -15.0563 897.775 40.4284C1231.04 98.8688 1227.89 1051.04 1592.88 1114.37C1807.73 1151.64 2034.58 879.761 2196.65 637.18" stroke="#222222" stroke-width="4.61571" stroke-miterlimit="10"/>
<path d="M-451.095 93.7296C-350.677 324.685 -202.305 569.597 -0.230763 596.009C363.158 643.507 594.751 -27.5361 916.345 31.3747C1247.83 92.0967 1245.73 1017.32 1605.16 1078.03C1820.86 1114.47 2046.92 840.771 2208.05 597.183" stroke="#222222" stroke-width="4.61571" stroke-miterlimit="10"/>
<path d="M-439.978 75.6211C-341.707 301.928 -195.536 543.717 5.50124 572.289C370.471 624.16 608.144 -40.063 934.916 22.3208C1264.61 85.2632 1263.58 983.567 1617.43 1041.7C1833.99 1077.27 2059.26 801.78 2219.45 557.186" stroke="#222222" stroke-width="4.61571" stroke-miterlimit="10"/>
<path d="M-428.862 57.5122C-332.737 279.171 -188.766 517.86 11.2341 548.569C377.785 604.85 621.543 -52.6373 953.487 13.2662C1281.41 78.3714 1281.44 949.776 1629.7 1005.36C1847.13 1040.06 2071.6 762.788 2230.85 517.188" stroke="#222222" stroke-width="4.61571" stroke-miterlimit="10"/>
<path d="M-417.745 39.4061C-323.767 256.416 -181.997 492.028 16.9666 524.851C385.098 585.581 634.948 -65.2559 972.058 4.214C1298.21 71.4268 1299.31 915.95 1641.97 969.024C1860.28 1002.84 2083.95 723.799 2242.24 477.192" stroke="#222222" stroke-width="4.61571" stroke-miterlimit="10"/>
<path d="M-406.628 21.295C-314.797 233.657 -175.23 466.213 22.6995 501.128C392.408 566.345 648.362 -77.9274 990.629 -4.84283C1315.03 64.4257 1317.18 882.084 1654.24 932.686C1873.43 965.591 2096.29 684.805 2253.64 437.192" stroke="#222222" stroke-width="4.61571" stroke-miterlimit="10"/>
<path d="M-395.512 3.1866C-305.828 210.9 -168.466 440.423 28.4315 477.408C399.713 547.149 661.782 -90.6433 1009.2 -13.897C1331.85 57.378 1335.06 848.184 1666.51 896.349C1886.58 928.329 2108.63 645.814 2265.04 397.194" stroke="#222222" stroke-width="4.61571" stroke-miterlimit="10"/>
<path d="M-384.395 -14.9217C-296.858 188.143 -161.705 414.654 34.164 453.688C407.014 527.992 675.214 -103.408 1027.77 -22.9514C1348.68 50.2834 1352.95 814.249 1678.78 860.013C1899.73 891.047 2120.97 606.822 2276.43 357.196" stroke="#222222" stroke-width="4.61571" stroke-miterlimit="10"/>
<path d="M-373.279 -33.029C-287.888 165.388 -154.947 388.907 39.8964 429.969C414.308 508.875 688.656 -116.221 1046.34 -32.0044C1365.52 43.1458 1370.85 780.279 1691.05 823.678C1912.89 853.745 2133.31 567.833 2287.83 317.199" stroke="#222222" stroke-width="4.61571" stroke-miterlimit="10"/>
<path d="M-362.162 -51.1382C-278.918 142.63 -148.194 363.178 45.6289 406.248C421.594 489.795 702.111 -129.083 1064.91 -41.059C1382.37 35.9643 1388.75 746.272 1703.32 787.341C1926.06 816.419 2145.66 528.841 2299.23 277.201" stroke="#222222" stroke-width="4.61571" stroke-miterlimit="10"/>
<path d="M-351.045 -69.2451C-269.948 119.875 -141.445 337.471 51.3617 382.53C428.871 470.755 715.578 -141.993 1083.48 -50.1117C1399.23 28.7454 1406.65 712.233 1715.6 751.006C1939.22 779.073 2158 489.851 2310.62 237.205" stroke="#222222" stroke-width="4.61571" stroke-miterlimit="10"/>
<path d="M-339.929 -87.355C-260.979 97.1168 -134.702 311.779 57.0938 358.808C436.136 451.751 729.06 -154.956 1102.05 -59.1676C1416.11 21.4852 1424.56 678.155 1727.87 714.669C1952.39 741.698 2170.34 450.858 2322.02 197.206" stroke="#222222" stroke-width="4.61571" stroke-miterlimit="10"/>
<path d="M-328.812 -105.464C-252.009 74.3598 -127.964 286.108 62.8263 335.088C443.39 432.787 742.558 -167.967 1120.62 -68.2222C1432.99 14.1902 1442.47 644.045 1740.14 678.332C1965.57 704.299 2182.68 411.866 2333.42 157.208" stroke="#222222" stroke-width="4.61571" stroke-miterlimit="10"/>
<path d="M-317.696 -123.571C-243.039 51.6043 -121.233 260.456 68.5586 311.369C450.63 413.863 756.071 -181.027 1139.19 -77.2749C1449.89 6.86355 1460.39 609.902 1752.41 641.997C1978.74 666.873 2195.02 372.877 2344.81 117.212" stroke="#222222" stroke-width="4.61571" stroke-miterlimit="10"/>
<path d="M-306.578 -141.68C-234.069 28.8468 -114.508 234.819 74.2917 287.648C457.857 394.976 769.603 -194.139 1157.77 -86.3303C1466.8 -0.498219 1478.31 575.723 1764.68 605.66C1991.92 629.416 2207.37 333.884 2356.21 77.2126" stroke="#222222" stroke-width="4.61571" stroke-miterlimit="10"/>
<path d="M-295.462 -159.787C-225.099 6.09131 -107.792 209.202 80.0237 263.93C465.066 376.129 783.153 -207.3 1176.34 -95.3827C1483.72 -7.88748 1496.23 541.513 1776.95 569.325C2005.1 591.929 2219.71 294.895 2367.61 37.2166" stroke="#222222" stroke-width="4.61571" stroke-miterlimit="10"/>
<path d="M-284.346 -177.896C-216.13 -16.6662 -101.083 183.598 85.756 240.209C472.259 357.317 796.721 -220.514 1194.91 -104.438C1500.66 -15.3085 1514.16 507.267 1789.22 532.988C2018.28 554.407 2232.05 255.903 2379.01 -2.78182" stroke="#222222" stroke-width="4.61571" stroke-miterlimit="10"/>
<path d="M-273.229 -196.006C-207.16 -39.4241 -94.3816 158.009 91.4886 216.488C479.434 338.544 810.31 -233.779 1213.48 -113.493C1517.6 -22.7573 1532.08 472.989 1801.49 496.651C2031.47 516.849 2244.39 216.91 2390.4 -42.7809" stroke="#222222" stroke-width="4.61571" stroke-miterlimit="10"/>
<path d="M-262.112 -214.113C-198.19 -62.1793 -87.6891 132.438 97.2213 192.769C486.59 319.809 823.92 -247.092 1232.05 -122.546C1534.56 -30.2292 1550 438.68 1813.76 460.316C2044.65 479.256 2256.74 177.921 2401.8 -82.7769" stroke="#222222" stroke-width="4.61571" stroke-miterlimit="10"/>
<path d="M-250.996 -232.222C-189.22 -84.9366 -81.0061 106.88 102.953 169.049C493.725 301.11 837.553 -260.459 1250.62 -131.601C1551.54 -37.7277 1567.92 404.337 1826.04 423.98C2057.84 441.62 2269.08 138.929 2413.2 -122.775" stroke="#222222" stroke-width="4.61571" stroke-miterlimit="10"/>
<path d="M-239.879 -250.329C-180.25 -107.692 -74.3317 81.3362 108.686 145.33C500.839 282.449 851.208 -273.877 1269.19 -140.654C1568.52 -45.2483 1585.85 369.963 1838.31 387.644C2071.02 403.942 2281.42 99.9385 2424.59 -162.772" stroke="#222222" stroke-width="4.61571" stroke-miterlimit="10"/>
<path d="M-228.763 -268.438C-171.281 -130.45 -67.6676 55.8039 114.418 121.609C507.93 263.822 864.886 -287.347 1287.76 -149.709C1585.52 -52.7923 1603.76 335.557 1850.58 351.307C2084.21 366.216 2293.76 60.9465 2435.99 -202.77" stroke="#222222" stroke-width="4.61571" stroke-miterlimit="10"/>
<path d="M-217.646 -286.547C-162.311 -153.207 -61.0133 30.2847 120.151 97.8883C514.999 245.231 878.589 -300.87 1306.33 -158.763C1602.54 -60.3569 1621.68 301.119 1862.85 314.971C2097.39 328.441 2306.1 21.9547 2447.39 -242.769" stroke="#222222" stroke-width="4.61571" stroke-miterlimit="10"/>
<path d="M-206.529 -304.655C-153.341 -175.963 -54.4665 5.03196 125.883 74.1691C521.828 227.232 892.573 -315.194 1324.9 -167.817C1619.74 -68.4523 1639.59 266.652 1875.12 278.635C2110.57 290.615 2318.45 -17.0357 2458.78 -282.765" stroke="#222222" stroke-width="4.61571" stroke-miterlimit="10"/>
<path d="M-195.413 -322.764C-144.371 -198.72 -47.7358 -20.7176 131.616 50.4488C529.061 208.154 906.073 -328.069 1343.47 -176.872C1636.61 -75.5431 1657.49 232.153 1887.39 242.298C2123.75 252.73 2330.79 -56.0272 2470.18 -322.764" stroke="#222222" stroke-width="4.61571" stroke-miterlimit="10"/>
</g>
</g>
<defs>
<clipPath id="clip0_4077_90">
<rect width="1920" height="425" fill="white"/>
</clipPath>
</defs>
</svg>
