<svg width="410" height="340" viewBox="0 0 410 340" fill="none" xmlns="http://www.w3.org/2000/svg">
<rect width="410" height="340" fill="#F2F2F2"/>
<circle cx="205" cy="149" r="48" fill="#222222"/>
<path d="M222.922 159.234L221.047 167.125C220.812 168.297 219.875 169.078 218.703 169.078C199.016 169 183 152.984 183 133.297C183 132.125 183.703 131.188 184.875 130.953L192.766 129.078C193.859 128.844 195.031 129.469 195.5 130.484L199.172 139C199.562 140.016 199.328 141.188 198.469 141.812L194.25 145.25C196.906 150.641 201.281 155.016 206.75 157.672L210.188 153.453C210.812 152.672 211.984 152.359 213 152.75L221.516 156.422C222.531 156.969 223.156 158.141 222.922 159.234Z" fill="white"/>
<path d="M109.524 294.74C108.292 293.303 107.361 291.741 106.73 290.054C106.114 288.367 105.806 286.571 105.806 284.664C105.806 282.757 106.114 280.961 106.73 279.274C107.346 277.587 108.278 276.033 109.524 274.61H111.944C110.888 276.179 110.096 277.807 109.568 279.494C109.055 281.166 108.798 282.889 108.798 284.664C108.798 286.439 109.062 288.169 109.59 289.856C110.118 291.543 110.903 293.171 111.944 294.74H109.524ZM118.762 291V286.732H114.494V284.246H118.762V280H121.248V284.246H125.494V286.732H121.248V291H118.762ZM134.21 291.264C133.022 291.264 131.988 291.044 131.108 290.604C130.242 290.149 129.568 289.541 129.084 288.778C128.614 288.015 128.38 287.179 128.38 286.27C128.38 285.199 128.666 284.297 129.238 283.564C129.81 282.816 130.638 282.266 131.724 281.914L131.548 282.64C130.77 282.391 130.154 281.907 129.7 281.188C129.26 280.469 129.04 279.677 129.04 278.812C129.04 277.947 129.26 277.177 129.7 276.502C130.14 275.827 130.748 275.299 131.526 274.918C132.303 274.537 133.198 274.346 134.21 274.346C135.207 274.346 136.087 274.537 136.85 274.918C137.627 275.299 138.236 275.827 138.676 276.502C139.13 277.177 139.358 277.947 139.358 278.812C139.358 279.692 139.13 280.491 138.676 281.21C138.236 281.914 137.627 282.398 136.85 282.662L136.696 281.892C137.781 282.273 138.61 282.838 139.182 283.586C139.754 284.319 140.04 285.221 140.04 286.292C140.04 287.201 139.798 288.037 139.314 288.8C138.844 289.548 138.17 290.149 137.29 290.604C136.424 291.044 135.398 291.264 134.21 291.264ZM134.21 288.734C134.782 288.734 135.28 288.631 135.706 288.426C136.131 288.206 136.461 287.905 136.696 287.524C136.93 287.128 137.048 286.681 137.048 286.182C137.048 285.669 136.93 285.229 136.696 284.862C136.461 284.481 136.131 284.187 135.706 283.982C135.28 283.762 134.782 283.652 134.21 283.652C133.638 283.652 133.139 283.762 132.714 283.982C132.303 284.187 131.98 284.481 131.746 284.862C131.511 285.229 131.394 285.669 131.394 286.182C131.394 286.681 131.511 287.128 131.746 287.524C131.98 287.905 132.303 288.206 132.714 288.426C133.139 288.631 133.638 288.734 134.21 288.734ZM134.21 281.122C134.635 281.122 135.009 281.027 135.332 280.836C135.654 280.645 135.904 280.396 136.08 280.088C136.27 279.765 136.366 279.399 136.366 278.988C136.366 278.577 136.27 278.218 136.08 277.91C135.904 277.587 135.654 277.338 135.332 277.162C135.009 276.971 134.635 276.876 134.21 276.876C133.784 276.876 133.403 276.971 133.066 277.162C132.743 277.338 132.486 277.587 132.296 277.91C132.12 278.218 132.032 278.577 132.032 278.988C132.032 279.399 132.12 279.765 132.296 280.088C132.486 280.396 132.743 280.645 133.066 280.836C133.403 281.027 133.784 281.122 134.21 281.122ZM148.11 291.264C146.922 291.264 145.888 291.044 145.008 290.604C144.143 290.149 143.468 289.541 142.984 288.778C142.515 288.015 142.28 287.179 142.28 286.27C142.28 285.199 142.566 284.297 143.138 283.564C143.71 282.816 144.539 282.266 145.624 281.914L145.448 282.64C144.671 282.391 144.055 281.907 143.6 281.188C143.16 280.469 142.94 279.677 142.94 278.812C142.94 277.947 143.16 277.177 143.6 276.502C144.04 275.827 144.649 275.299 145.426 274.918C146.204 274.537 147.098 274.346 148.11 274.346C149.108 274.346 149.988 274.537 150.75 274.918C151.528 275.299 152.136 275.827 152.576 276.502C153.031 277.177 153.258 277.947 153.258 278.812C153.258 279.692 153.031 280.491 152.576 281.21C152.136 281.914 151.528 282.398 150.75 282.662L150.596 281.892C151.682 282.273 152.51 282.838 153.082 283.586C153.654 284.319 153.94 285.221 153.94 286.292C153.94 287.201 153.698 288.037 153.214 288.8C152.745 289.548 152.07 290.149 151.19 290.604C150.325 291.044 149.298 291.264 148.11 291.264ZM148.11 288.734C148.682 288.734 149.181 288.631 149.606 288.426C150.032 288.206 150.362 287.905 150.596 287.524C150.831 287.128 150.948 286.681 150.948 286.182C150.948 285.669 150.831 285.229 150.596 284.862C150.362 284.481 150.032 284.187 149.606 283.982C149.181 283.762 148.682 283.652 148.11 283.652C147.538 283.652 147.04 283.762 146.614 283.982C146.204 284.187 145.881 284.481 145.646 284.862C145.412 285.229 145.294 285.669 145.294 286.182C145.294 286.681 145.412 287.128 145.646 287.524C145.881 287.905 146.204 288.206 146.614 288.426C147.04 288.631 147.538 288.734 148.11 288.734ZM148.11 281.122C148.536 281.122 148.91 281.027 149.232 280.836C149.555 280.645 149.804 280.396 149.98 280.088C150.171 279.765 150.266 279.399 150.266 278.988C150.266 278.577 150.171 278.218 149.98 277.91C149.804 277.587 149.555 277.338 149.232 277.162C148.91 276.971 148.536 276.876 148.11 276.876C147.685 276.876 147.304 276.971 146.966 277.162C146.644 277.338 146.387 277.587 146.196 277.91C146.02 278.218 145.932 278.577 145.932 278.988C145.932 279.399 146.02 279.765 146.196 280.088C146.387 280.396 146.644 280.645 146.966 280.836C147.304 281.027 147.685 281.122 148.11 281.122ZM162.011 291.264C160.823 291.264 159.789 291.044 158.909 290.604C158.043 290.149 157.369 289.541 156.885 288.778C156.415 288.015 156.181 287.179 156.181 286.27C156.181 285.199 156.467 284.297 157.039 283.564C157.611 282.816 158.439 282.266 159.525 281.914L159.349 282.64C158.571 282.391 157.955 281.907 157.501 281.188C157.061 280.469 156.841 279.677 156.841 278.812C156.841 277.947 157.061 277.177 157.501 276.502C157.941 275.827 158.549 275.299 159.327 274.918C160.104 274.537 160.999 274.346 162.011 274.346C163.008 274.346 163.888 274.537 164.651 274.918C165.428 275.299 166.037 275.827 166.477 276.502C166.931 277.177 167.159 277.947 167.159 278.812C167.159 279.692 166.931 280.491 166.477 281.21C166.037 281.914 165.428 282.398 164.651 282.662L164.497 281.892C165.582 282.273 166.411 282.838 166.983 283.586C167.555 284.319 167.841 285.221 167.841 286.292C167.841 287.201 167.599 288.037 167.115 288.8C166.645 289.548 165.971 290.149 165.091 290.604C164.225 291.044 163.199 291.264 162.011 291.264ZM162.011 288.734C162.583 288.734 163.081 288.631 163.507 288.426C163.932 288.206 164.262 287.905 164.497 287.524C164.731 287.128 164.849 286.681 164.849 286.182C164.849 285.669 164.731 285.229 164.497 284.862C164.262 284.481 163.932 284.187 163.507 283.982C163.081 283.762 162.583 283.652 162.011 283.652C161.439 283.652 160.94 283.762 160.515 283.982C160.104 284.187 159.781 284.481 159.547 284.862C159.312 285.229 159.195 285.669 159.195 286.182C159.195 286.681 159.312 287.128 159.547 287.524C159.781 287.905 160.104 288.206 160.515 288.426C160.94 288.631 161.439 288.734 162.011 288.734ZM162.011 281.122C162.436 281.122 162.81 281.027 163.133 280.836C163.455 280.645 163.705 280.396 163.881 280.088C164.071 279.765 164.167 279.399 164.167 278.988C164.167 278.577 164.071 278.218 163.881 277.91C163.705 277.587 163.455 277.338 163.133 277.162C162.81 276.971 162.436 276.876 162.011 276.876C161.585 276.876 161.204 276.971 160.867 277.162C160.544 277.338 160.287 277.587 160.097 277.91C159.921 278.218 159.833 278.577 159.833 278.988C159.833 279.399 159.921 279.765 160.097 280.088C160.287 280.396 160.544 280.645 160.867 280.836C161.204 281.027 161.585 281.122 162.011 281.122ZM169.773 294.74C170.814 293.171 171.592 291.543 172.105 289.856C172.633 288.169 172.897 286.439 172.897 284.664C172.897 282.889 172.633 281.166 172.105 279.494C171.592 277.807 170.814 276.179 169.773 274.61H172.193C173.425 276.033 174.349 277.587 174.965 279.274C175.581 280.961 175.889 282.757 175.889 284.664C175.889 286.571 175.581 288.367 174.965 290.054C174.349 291.741 173.425 293.303 172.193 294.74H169.773ZM185.011 291V277.162H181.843V274.61H188.003V291H185.011ZM191.09 291V288.734L195.534 284.092C196.414 283.168 197.089 282.435 197.558 281.892C198.042 281.335 198.379 280.858 198.57 280.462C198.761 280.066 198.856 279.663 198.856 279.252C198.856 278.563 198.636 278.02 198.196 277.624C197.771 277.228 197.221 277.03 196.546 277.03C195.842 277.03 195.233 277.235 194.72 277.646C194.207 278.042 193.833 278.629 193.598 279.406L190.98 278.592C191.156 277.727 191.515 276.979 192.058 276.348C192.601 275.703 193.261 275.211 194.038 274.874C194.83 274.522 195.666 274.346 196.546 274.346C197.602 274.346 198.526 274.537 199.318 274.918C200.125 275.299 200.748 275.835 201.188 276.524C201.643 277.213 201.87 278.02 201.87 278.944C201.87 279.531 201.76 280.11 201.54 280.682C201.32 281.254 200.99 281.841 200.55 282.442C200.11 283.029 199.538 283.689 198.834 284.422L194.984 288.47H202.09V291H191.09ZM209.651 291.264C208.756 291.264 207.906 291.103 207.099 290.78C206.307 290.443 205.625 289.973 205.053 289.372C204.496 288.756 204.114 288.03 203.909 287.194L206.527 286.27C206.791 287.018 207.194 287.59 207.737 287.986C208.28 288.367 208.918 288.558 209.651 288.558C210.238 288.558 210.744 288.448 211.169 288.228C211.609 288.008 211.954 287.693 212.203 287.282C212.452 286.857 212.577 286.358 212.577 285.786C212.577 285.214 212.452 284.73 212.203 284.334C211.968 283.923 211.631 283.608 211.191 283.388C210.751 283.168 210.23 283.058 209.629 283.058C209.35 283.058 209.057 283.087 208.749 283.146C208.456 283.205 208.192 283.293 207.957 283.41L207.275 281.98L211.521 277.14H204.833V274.61H214.887V276.964L210.619 281.958L210.663 280.836C211.646 280.851 212.504 281.063 213.237 281.474C213.97 281.885 214.542 282.449 214.953 283.168C215.364 283.887 215.569 284.73 215.569 285.698C215.569 286.754 215.312 287.707 214.799 288.558C214.286 289.394 213.582 290.054 212.687 290.538C211.792 291.022 210.78 291.264 209.651 291.264ZM228.88 291V287.392H221.356V284.884L228.704 274.61H231.828V284.884H234.226V287.392H231.828V291H228.88ZM223.556 285.962L223.028 284.884H228.88V276.964L229.65 277.206L223.556 285.962ZM241.493 291.264C240.628 291.264 239.799 291.103 239.007 290.78C238.23 290.457 237.555 290.003 236.983 289.416C236.426 288.815 236.044 288.103 235.839 287.282L238.435 286.358C238.684 287.106 239.088 287.663 239.645 288.03C240.202 288.382 240.818 288.558 241.493 288.558C242.05 288.558 242.542 288.441 242.967 288.206C243.407 287.957 243.744 287.619 243.979 287.194C244.214 286.754 244.331 286.248 244.331 285.676C244.331 285.104 244.206 284.605 243.957 284.18C243.722 283.755 243.392 283.425 242.967 283.19C242.542 282.941 242.05 282.816 241.493 282.816C240.921 282.816 240.4 282.941 239.931 283.19C239.476 283.439 239.146 283.799 238.941 284.268L236.499 283.718L237.797 274.61H246.729V277.14H238.985L240.107 275.842L239.183 282.706L238.325 282.002C238.736 281.401 239.234 280.961 239.821 280.682C240.422 280.403 241.148 280.264 241.999 280.264C243.084 280.264 244.023 280.499 244.815 280.968C245.622 281.437 246.245 282.075 246.685 282.882C247.125 283.689 247.345 284.62 247.345 285.676C247.345 286.732 247.088 287.685 246.575 288.536C246.062 289.387 245.365 290.054 244.485 290.538C243.605 291.022 242.608 291.264 241.493 291.264ZM255.138 291.264C254.023 291.264 253.033 291.029 252.168 290.56C251.317 290.076 250.65 289.431 250.166 288.624C249.682 287.803 249.44 286.871 249.44 285.83C249.44 285.302 249.491 284.774 249.594 284.246C249.711 283.718 249.917 283.153 250.21 282.552C250.518 281.951 250.958 281.283 251.53 280.55L256.106 274.61H259.67L254.104 281.76L253.62 281.232C253.825 281.071 254.038 280.946 254.258 280.858C254.478 280.755 254.698 280.682 254.918 280.638C255.153 280.594 255.395 280.572 255.644 280.572C256.641 280.572 257.529 280.799 258.306 281.254C259.083 281.709 259.692 282.332 260.132 283.124C260.587 283.901 260.814 284.781 260.814 285.764C260.814 286.82 260.572 287.766 260.088 288.602C259.604 289.423 258.929 290.076 258.064 290.56C257.213 291.029 256.238 291.264 255.138 291.264ZM255.138 288.558C255.637 288.558 256.084 288.448 256.48 288.228C256.891 287.993 257.213 287.663 257.448 287.238C257.697 286.813 257.822 286.336 257.822 285.808C257.822 285.251 257.697 284.774 257.448 284.378C257.213 283.967 256.898 283.645 256.502 283.41C256.106 283.175 255.651 283.058 255.138 283.058C254.639 283.058 254.185 283.175 253.774 283.41C253.363 283.645 253.033 283.967 252.784 284.378C252.549 284.774 252.432 285.251 252.432 285.808C252.432 286.336 252.549 286.813 252.784 287.238C253.033 287.663 253.363 287.993 253.774 288.228C254.185 288.448 254.639 288.558 255.138 288.558ZM267.223 291L274.043 277.14H266.321V274.61H277.189V277.14L270.523 291H267.223ZM283.476 291.264C282.361 291.264 281.371 291.029 280.506 290.56C279.655 290.076 278.988 289.431 278.504 288.624C278.02 287.803 277.778 286.871 277.778 285.83C277.778 285.302 277.829 284.774 277.932 284.246C278.049 283.718 278.255 283.153 278.548 282.552C278.856 281.951 279.296 281.283 279.868 280.55L284.444 274.61H288.008L282.442 281.76L281.958 281.232C282.163 281.071 282.376 280.946 282.596 280.858C282.816 280.755 283.036 280.682 283.256 280.638C283.491 280.594 283.733 280.572 283.982 280.572C284.979 280.572 285.867 280.799 286.644 281.254C287.421 281.709 288.03 282.332 288.47 283.124C288.925 283.901 289.152 284.781 289.152 285.764C289.152 286.82 288.91 287.766 288.426 288.602C287.942 289.423 287.267 290.076 286.402 290.56C285.551 291.029 284.576 291.264 283.476 291.264ZM283.476 288.558C283.975 288.558 284.422 288.448 284.818 288.228C285.229 287.993 285.551 287.663 285.786 287.238C286.035 286.813 286.16 286.336 286.16 285.808C286.16 285.251 286.035 284.774 285.786 284.378C285.551 283.967 285.236 283.645 284.84 283.41C284.444 283.175 283.989 283.058 283.476 283.058C282.977 283.058 282.523 283.175 282.112 283.41C281.701 283.645 281.371 283.967 281.122 284.378C280.887 284.774 280.77 285.251 280.77 285.808C280.77 286.336 280.887 286.813 281.122 287.238C281.371 287.663 281.701 287.993 282.112 288.228C282.523 288.448 282.977 288.558 283.476 288.558ZM296.6 291.264C295.735 291.264 294.906 291.103 294.114 290.78C293.337 290.457 292.662 290.003 292.09 289.416C291.533 288.815 291.152 288.103 290.946 287.282L293.542 286.358C293.792 287.106 294.195 287.663 294.752 288.03C295.31 288.382 295.926 288.558 296.6 288.558C297.158 288.558 297.649 288.441 298.074 288.206C298.514 287.957 298.852 287.619 299.086 287.194C299.321 286.754 299.438 286.248 299.438 285.676C299.438 285.104 299.314 284.605 299.064 284.18C298.83 283.755 298.5 283.425 298.074 283.19C297.649 282.941 297.158 282.816 296.6 282.816C296.028 282.816 295.508 282.941 295.038 283.19C294.584 283.439 294.254 283.799 294.048 284.268L291.606 283.718L292.904 274.61H301.836V277.14H294.092L295.214 275.842L294.29 282.706L293.432 282.002C293.843 281.401 294.342 280.961 294.928 280.682C295.53 280.403 296.256 280.264 297.106 280.264C298.192 280.264 299.13 280.499 299.922 280.968C300.729 281.437 301.352 282.075 301.792 282.882C302.232 283.689 302.452 284.62 302.452 285.676C302.452 286.732 302.196 287.685 301.682 288.536C301.169 289.387 300.472 290.054 299.592 290.538C298.712 291.022 297.715 291.264 296.6 291.264Z" fill="#222222"/>
<path d="M136.492 247V233H145.012V234.38H138.172V239.3H143.992V240.66H138.172V247H136.492ZM151.166 247.24C150.232 247.24 149.392 247.027 148.646 246.6C147.899 246.173 147.306 245.573 146.866 244.8C146.439 244.013 146.226 243.093 146.226 242.04C146.226 240.987 146.446 240.073 146.886 239.3C147.326 238.513 147.919 237.907 148.666 237.48C149.426 237.053 150.272 236.84 151.206 236.84C152.139 236.84 152.979 237.053 153.726 237.48C154.472 237.907 155.059 238.513 155.486 239.3C155.926 240.073 156.146 240.987 156.146 242.04C156.146 243.093 155.926 244.013 155.486 244.8C155.046 245.573 154.446 246.173 153.686 246.6C152.939 247.027 152.099 247.24 151.166 247.24ZM151.166 245.8C151.739 245.8 152.272 245.66 152.766 245.38C153.259 245.1 153.659 244.68 153.966 244.12C154.272 243.56 154.426 242.867 154.426 242.04C154.426 241.213 154.272 240.52 153.966 239.96C153.672 239.4 153.279 238.98 152.786 238.7C152.292 238.42 151.766 238.28 151.206 238.28C150.632 238.28 150.099 238.42 149.606 238.7C149.112 238.98 148.712 239.4 148.406 239.96C148.099 240.52 147.946 241.213 147.946 242.04C147.946 242.867 148.099 243.56 148.406 244.12C148.712 244.68 149.106 245.1 149.586 245.38C150.079 245.66 150.606 245.8 151.166 245.8ZM158.482 247V237.08H160.002L160.142 238.98C160.448 238.327 160.915 237.807 161.542 237.42C162.168 237.033 162.942 236.84 163.862 236.84V238.6H163.402C162.815 238.6 162.275 238.707 161.782 238.92C161.288 239.12 160.895 239.467 160.602 239.96C160.308 240.453 160.162 241.133 160.162 242V247H158.482ZM171.58 247V238.5H170.08V237.08H171.58V235.36C171.58 234.4 171.82 233.7 172.3 233.26C172.78 232.82 173.48 232.6 174.4 232.6H175.4V234.04H174.66C174.153 234.04 173.793 234.147 173.58 234.36C173.367 234.56 173.26 234.907 173.26 235.4V237.08H175.7V238.5H173.26V247H171.58ZM180.61 247.24C179.783 247.24 179.096 247.1 178.55 246.82C178.003 246.54 177.596 246.167 177.33 245.7C177.063 245.233 176.93 244.727 176.93 244.18C176.93 243.167 177.316 242.387 178.09 241.84C178.863 241.293 179.916 241.02 181.25 241.02H183.93V240.9C183.93 240.033 183.703 239.38 183.25 238.94C182.796 238.487 182.19 238.26 181.43 238.26C180.776 238.26 180.21 238.427 179.73 238.76C179.263 239.08 178.97 239.553 178.85 240.18H177.13C177.196 239.46 177.436 238.853 177.85 238.36C178.276 237.867 178.803 237.493 179.43 237.24C180.056 236.973 180.723 236.84 181.43 236.84C182.816 236.84 183.856 237.213 184.55 237.96C185.256 238.693 185.61 239.673 185.61 240.9V247H184.11L184.01 245.22C183.73 245.78 183.316 246.26 182.77 246.66C182.236 247.047 181.516 247.24 180.61 247.24ZM180.87 245.82C181.51 245.82 182.056 245.653 182.51 245.32C182.976 244.987 183.33 244.553 183.57 244.02C183.81 243.487 183.93 242.927 183.93 242.34V242.32H181.39C180.403 242.32 179.703 242.493 179.29 242.84C178.89 243.173 178.69 243.593 178.69 244.1C178.69 244.62 178.876 245.04 179.25 245.36C179.636 245.667 180.176 245.82 180.87 245.82ZM191.93 247.24C190.743 247.24 189.757 246.94 188.97 246.34C188.183 245.74 187.723 244.927 187.59 243.9H189.31C189.417 244.42 189.69 244.873 190.13 245.26C190.583 245.633 191.19 245.82 191.95 245.82C192.657 245.82 193.177 245.673 193.51 245.38C193.843 245.073 194.01 244.713 194.01 244.3C194.01 243.7 193.79 243.3 193.35 243.1C192.923 242.9 192.317 242.72 191.53 242.56C190.997 242.453 190.463 242.3 189.93 242.1C189.397 241.9 188.95 241.62 188.59 241.26C188.23 240.887 188.05 240.4 188.05 239.8C188.05 238.933 188.37 238.227 189.01 237.68C189.663 237.12 190.543 236.84 191.65 236.84C192.703 236.84 193.563 237.107 194.23 237.64C194.91 238.16 195.303 238.907 195.41 239.88H193.75C193.683 239.373 193.463 238.98 193.09 238.7C192.73 238.407 192.243 238.26 191.63 238.26C191.03 238.26 190.563 238.387 190.23 238.64C189.91 238.893 189.75 239.227 189.75 239.64C189.75 240.04 189.957 240.353 190.37 240.58C190.797 240.807 191.37 241 192.09 241.16C192.703 241.293 193.283 241.46 193.83 241.66C194.39 241.847 194.843 242.133 195.19 242.52C195.55 242.893 195.73 243.44 195.73 244.16C195.743 245.053 195.403 245.793 194.71 246.38C194.03 246.953 193.103 247.24 191.93 247.24ZM201.601 247C200.694 247 199.981 246.78 199.461 246.34C198.941 245.9 198.681 245.107 198.681 243.96V238.5H196.961V237.08H198.681L198.901 234.7H200.361V237.08H203.281V238.5H200.361V243.96C200.361 244.587 200.487 245.013 200.741 245.24C200.994 245.453 201.441 245.56 202.081 245.56H203.121V247H201.601ZM214.508 247.24C213.321 247.24 212.335 246.94 211.548 246.34C210.761 245.74 210.301 244.927 210.168 243.9H211.888C211.995 244.42 212.268 244.873 212.708 245.26C213.161 245.633 213.768 245.82 214.528 245.82C215.235 245.82 215.755 245.673 216.088 245.38C216.421 245.073 216.588 244.713 216.588 244.3C216.588 243.7 216.368 243.3 215.928 243.1C215.501 242.9 214.895 242.72 214.108 242.56C213.575 242.453 213.041 242.3 212.508 242.1C211.975 241.9 211.528 241.62 211.168 241.26C210.808 240.887 210.628 240.4 210.628 239.8C210.628 238.933 210.948 238.227 211.588 237.68C212.241 237.12 213.121 236.84 214.228 236.84C215.281 236.84 216.141 237.107 216.808 237.64C217.488 238.16 217.881 238.907 217.988 239.88H216.328C216.261 239.373 216.041 238.98 215.668 238.7C215.308 238.407 214.821 238.26 214.208 238.26C213.608 238.26 213.141 238.387 212.808 238.64C212.488 238.893 212.328 239.227 212.328 239.64C212.328 240.04 212.535 240.353 212.948 240.58C213.375 240.807 213.948 241 214.668 241.16C215.281 241.293 215.861 241.46 216.408 241.66C216.968 241.847 217.421 242.133 217.768 242.52C218.128 242.893 218.308 243.44 218.308 244.16C218.321 245.053 217.981 245.793 217.288 246.38C216.608 246.953 215.681 247.24 214.508 247.24ZM225.168 247.24C224.221 247.24 223.381 247.027 222.648 246.6C221.915 246.16 221.335 245.553 220.908 244.78C220.495 244.007 220.288 243.093 220.288 242.04C220.288 241 220.495 240.093 220.908 239.32C221.321 238.533 221.895 237.927 222.628 237.5C223.375 237.06 224.235 236.84 225.208 236.84C226.168 236.84 226.995 237.06 227.688 237.5C228.395 237.927 228.935 238.493 229.308 239.2C229.681 239.907 229.868 240.667 229.868 241.48C229.868 241.627 229.861 241.773 229.848 241.92C229.848 242.067 229.848 242.233 229.848 242.42H221.948C221.988 243.18 222.161 243.813 222.468 244.32C222.788 244.813 223.181 245.187 223.648 245.44C224.128 245.693 224.635 245.82 225.168 245.82C225.861 245.82 226.441 245.66 226.908 245.34C227.375 245.02 227.715 244.587 227.928 244.04H229.588C229.321 244.96 228.808 245.727 228.048 246.34C227.301 246.94 226.341 247.24 225.168 247.24ZM225.168 238.26C224.368 238.26 223.655 238.507 223.028 239C222.415 239.48 222.061 240.187 221.968 241.12H228.208C228.168 240.227 227.861 239.527 227.288 239.02C226.715 238.513 226.008 238.26 225.168 238.26ZM232.095 247V237.08H233.615L233.755 238.98C234.062 238.327 234.528 237.807 235.155 237.42C235.782 237.033 236.555 236.84 237.475 236.84V238.6H237.015C236.428 238.6 235.888 238.707 235.395 238.92C234.902 239.12 234.508 239.467 234.215 239.96C233.922 240.453 233.775 241.133 233.775 242V247H232.095ZM242.22 247L238.46 237.08H240.22L243.2 245.38L246.2 237.08H247.92L244.16 247H242.22ZM250.81 234.88C250.477 234.88 250.197 234.773 249.97 234.56C249.757 234.333 249.65 234.053 249.65 233.72C249.65 233.4 249.757 233.133 249.97 232.92C250.197 232.707 250.477 232.6 250.81 232.6C251.13 232.6 251.403 232.707 251.63 232.92C251.857 233.133 251.97 233.4 251.97 233.72C251.97 234.053 251.857 234.333 251.63 234.56C251.403 234.773 251.13 234.88 250.81 234.88ZM249.97 247V237.08H251.65V247H249.97ZM259.135 247.24C258.189 247.24 257.335 247.027 256.575 246.6C255.829 246.16 255.235 245.553 254.795 244.78C254.369 243.993 254.155 243.08 254.155 242.04C254.155 241 254.369 240.093 254.795 239.32C255.235 238.533 255.829 237.927 256.575 237.5C257.335 237.06 258.189 236.84 259.135 236.84C260.309 236.84 261.295 237.147 262.095 237.76C262.909 238.373 263.422 239.193 263.635 240.22H261.915C261.782 239.607 261.455 239.133 260.935 238.8C260.415 238.453 259.809 238.28 259.115 238.28C258.555 238.28 258.029 238.42 257.535 238.7C257.042 238.98 256.642 239.4 256.335 239.96C256.029 240.52 255.875 241.213 255.875 242.04C255.875 242.867 256.029 243.56 256.335 244.12C256.642 244.68 257.042 245.107 257.535 245.4C258.029 245.68 258.555 245.82 259.115 245.82C259.809 245.82 260.415 245.653 260.935 245.32C261.455 244.973 261.782 244.487 261.915 243.86H263.635C263.435 244.86 262.929 245.673 262.115 246.3C261.302 246.927 260.309 247.24 259.135 247.24ZM270.442 247.24C269.495 247.24 268.655 247.027 267.922 246.6C267.188 246.16 266.608 245.553 266.182 244.78C265.768 244.007 265.562 243.093 265.562 242.04C265.562 241 265.768 240.093 266.182 239.32C266.595 238.533 267.168 237.927 267.902 237.5C268.648 237.06 269.508 236.84 270.482 236.84C271.442 236.84 272.268 237.06 272.962 237.5C273.668 237.927 274.208 238.493 274.582 239.2C274.955 239.907 275.142 240.667 275.142 241.48C275.142 241.627 275.135 241.773 275.122 241.92C275.122 242.067 275.122 242.233 275.122 242.42H267.222C267.262 243.18 267.435 243.813 267.742 244.32C268.062 244.813 268.455 245.187 268.922 245.44C269.402 245.693 269.908 245.82 270.442 245.82C271.135 245.82 271.715 245.66 272.182 245.34C272.648 245.02 272.988 244.587 273.202 244.04H274.862C274.595 244.96 274.082 245.727 273.322 246.34C272.575 246.94 271.615 247.24 270.442 247.24ZM270.442 238.26C269.642 238.26 268.928 238.507 268.302 239C267.688 239.48 267.335 240.187 267.242 241.12H273.482C273.442 240.227 273.135 239.527 272.562 239.02C271.988 238.513 271.282 238.26 270.442 238.26Z" fill="#222222"/>
<path d="M151.74 72.264C150.566 72.264 149.481 72.0513 148.484 71.626C147.486 71.2007 146.614 70.6067 145.866 69.844C145.118 69.0813 144.531 68.1867 144.106 67.16C143.695 66.1333 143.49 65.0113 143.49 63.794C143.49 62.5767 143.688 61.4547 144.084 60.428C144.494 59.3867 145.066 58.492 145.8 57.744C146.548 56.9813 147.42 56.3947 148.418 55.984C149.415 55.5587 150.5 55.346 151.674 55.346C152.847 55.346 153.896 55.544 154.82 55.94C155.758 56.336 156.55 56.864 157.196 57.524C157.841 58.1693 158.303 58.8807 158.582 59.658L155.92 60.934C155.612 60.0833 155.091 59.394 154.358 58.866C153.624 58.338 152.73 58.074 151.674 58.074C150.647 58.074 149.738 58.316 148.946 58.8C148.168 59.284 147.56 59.9513 147.12 60.802C146.694 61.6527 146.482 62.65 146.482 63.794C146.482 64.938 146.702 65.9427 147.142 66.808C147.596 67.6587 148.22 68.326 149.012 68.81C149.804 69.294 150.713 69.536 151.74 69.536C152.576 69.536 153.346 69.3747 154.05 69.052C154.754 68.7147 155.318 68.2453 155.744 67.644C156.169 67.028 156.382 66.302 156.382 65.466V64.212L157.746 65.4H151.674V62.87H159.374V64.52C159.374 65.7813 159.161 66.896 158.736 67.864C158.31 68.832 157.731 69.646 156.998 70.306C156.279 70.9513 155.465 71.4427 154.556 71.78C153.646 72.1027 152.708 72.264 151.74 72.264ZM161.741 72V55.61H172.631V58.25H164.733V62.452H172.191V65.092H164.733V69.36H172.631V72H161.741ZM177.729 72V58.25H173.483V55.61H184.923V58.25H180.743V72H177.729ZM193.563 72V58.25H189.317V55.61H200.757V58.25H196.577V72H193.563ZM209.991 72.264C208.788 72.264 207.666 72.0513 206.625 71.626C205.584 71.2007 204.674 70.6067 203.897 69.844C203.12 69.0813 202.511 68.1867 202.071 67.16C201.646 66.1187 201.433 64.9967 201.433 63.794C201.433 62.5767 201.646 61.4547 202.071 60.428C202.496 59.4013 203.098 58.5067 203.875 57.744C204.652 56.9813 205.562 56.3947 206.603 55.984C207.644 55.5587 208.774 55.346 209.991 55.346C211.208 55.346 212.338 55.5587 213.379 55.984C214.42 56.4093 215.33 57.0033 216.107 57.766C216.884 58.514 217.486 59.4013 217.911 60.428C218.351 61.4547 218.571 62.5767 218.571 63.794C218.571 64.9967 218.351 66.1187 217.911 67.16C217.471 68.1867 216.862 69.0813 216.085 69.844C215.308 70.6067 214.398 71.2007 213.357 71.626C212.33 72.0513 211.208 72.264 209.991 72.264ZM209.991 69.536C210.798 69.536 211.538 69.3967 212.213 69.118C212.888 68.8247 213.474 68.4213 213.973 67.908C214.486 67.3947 214.875 66.786 215.139 66.082C215.418 65.378 215.557 64.6153 215.557 63.794C215.557 62.9727 215.418 62.2173 215.139 61.528C214.875 60.824 214.486 60.2153 213.973 59.702C213.474 59.174 212.888 58.7707 212.213 58.492C211.538 58.2133 210.798 58.074 209.991 58.074C209.199 58.074 208.466 58.2133 207.791 58.492C207.116 58.7707 206.522 59.174 206.009 59.702C205.51 60.2153 205.122 60.824 204.843 61.528C204.564 62.2173 204.425 62.9727 204.425 63.794C204.425 64.6153 204.564 65.378 204.843 66.082C205.122 66.786 205.51 67.3947 206.009 67.908C206.522 68.4213 207.116 68.8247 207.791 69.118C208.466 69.3967 209.199 69.536 209.991 69.536ZM227.545 72.264C226.284 72.264 225.162 72 224.179 71.472C223.211 70.944 222.449 70.218 221.891 69.294C221.334 68.37 221.055 67.3213 221.055 66.148V55.61H224.047V65.994C224.047 66.6687 224.194 67.2773 224.487 67.82C224.795 68.3627 225.213 68.788 225.741 69.096C226.269 69.3893 226.871 69.536 227.545 69.536C228.235 69.536 228.836 69.3893 229.349 69.096C229.877 68.788 230.288 68.3627 230.581 67.82C230.889 67.2773 231.043 66.6687 231.043 65.994V55.61H234.035V66.148C234.035 67.3213 233.757 68.37 233.199 69.294C232.642 70.218 231.872 70.944 230.889 71.472C229.921 72 228.807 72.264 227.545 72.264ZM244.722 72.264C243.549 72.264 242.464 72.0513 241.466 71.626C240.484 71.2007 239.618 70.6067 238.87 69.844C238.137 69.0813 237.565 68.1867 237.154 67.16C236.744 66.1333 236.538 65.0113 236.538 63.794C236.538 62.5767 236.736 61.4547 237.132 60.428C237.543 59.3867 238.115 58.492 238.848 57.744C239.596 56.9813 240.469 56.3947 241.466 55.984C242.464 55.5587 243.549 55.346 244.722 55.346C245.896 55.346 246.944 55.544 247.868 55.94C248.807 56.336 249.599 56.864 250.244 57.524C250.89 58.1693 251.352 58.8807 251.63 59.658L248.946 60.912C248.638 60.0907 248.118 59.416 247.384 58.888C246.651 58.3453 245.764 58.074 244.722 58.074C243.696 58.074 242.786 58.316 241.994 58.8C241.217 59.284 240.608 59.9513 240.168 60.802C239.743 61.6527 239.53 62.65 239.53 63.794C239.53 64.938 239.743 65.9427 240.168 66.808C240.608 67.6587 241.217 68.326 241.994 68.81C242.786 69.294 243.696 69.536 244.722 69.536C245.764 69.536 246.651 69.272 247.384 68.744C248.118 68.2013 248.638 67.5193 248.946 66.698L251.63 67.952C251.352 68.7293 250.89 69.448 250.244 70.108C249.599 70.7533 248.807 71.274 247.868 71.67C246.944 72.066 245.896 72.264 244.722 72.264ZM254.06 72V55.61H257.052V62.76H264.026V55.61H267.04V72H264.026V65.4H257.052V72H254.06Z" fill="#222222"/>
</svg>
