<svg width="127" height="40" viewBox="0 0 127 40" fill="none" xmlns="http://www.w3.org/2000/svg">
<path d="M0.0930495 17.7183C0.390788 17.616 0.821051 17.6156 1.14206 17.5699C2.15009 17.4266 3.18287 17.2892 4.2035 17.3371C4.86304 17.3682 5.51259 17.4778 6.17442 17.4865L6.2744 17.4871L6.13219 18.2694C6.01378 19.7265 5.94833 21.0691 6.17473 22.5173C6.21746 22.6992 6.27 22.8871 6.27664 23.0744C6.27785 23.1074 6.2761 23.2788 6.27157 23.2916C6.14689 23.6308 2.3674 27.1728 1.72973 27.8196C0.215309 24.8132 -0.213924 21.0331 0.0930495 17.7183Z" fill="#4E4E4E"/>
<path d="M30.7986 10.9248L30.8168 10.8061C31.4448 11.1535 31.7613 12.0925 32.2602 12.6055C32.2873 12.6334 32.4462 12.7865 32.4622 12.7916C32.6485 12.8511 33.9797 12.4454 34.4155 12.4745C35.4069 12.5412 36.4406 12.7296 37.4227 12.8827C37.736 12.9317 38.0596 13.0509 38.3758 13.0446C38.539 13.0413 38.474 13.0628 38.5929 12.9377C38.3842 11.8832 37.5695 10.7577 37.1341 9.75977L37.1796 9.58911C39.4975 13.2999 40.3823 17.9484 39.8509 22.2765L39.7185 22.3334C39.5359 23.3404 38.7737 27.2244 38.096 27.8426C37.8021 27.7871 37.5072 27.7372 37.2151 27.6731C36.4995 27.516 32.9836 27.5885 32.1874 27.8069C33.0119 26.6189 34.1191 24.6352 34.1181 23.1485L34.0562 23.0809C34.6828 18.1979 33.7897 14.8367 30.7986 10.9248Z" fill="#4E4E4E"/>
<path d="M32.1865 27.8071C32.9826 27.5887 36.4986 27.5162 37.2142 27.6733C37.5063 27.7374 37.8012 27.7872 38.095 27.8427C38.7728 27.2246 39.5349 23.3405 39.7176 22.3335L39.85 22.2766C39.8297 22.4417 39.8073 22.6066 39.7829 22.7712C39.7586 22.9357 39.7323 23.0999 39.7037 23.2638C39.6752 23.4277 39.6448 23.5912 39.6123 23.7543C39.5799 23.9175 39.5454 24.0802 39.5088 24.2426C39.4723 24.4048 39.4338 24.5666 39.3932 24.728C39.3527 24.8893 39.3102 25.05 39.2657 25.2103C39.2212 25.3706 39.1748 25.5303 39.1263 25.6894C39.0779 25.8485 39.0275 26.007 38.9752 26.1648C38.9228 26.3227 38.8684 26.4799 38.8121 26.6364C38.7559 26.7929 38.6977 26.9488 38.6377 27.1037C38.5776 27.2588 38.5155 27.4131 38.4515 27.5667C38.3876 27.7202 38.3218 27.8729 38.2542 28.0247C38.1865 28.1766 38.1169 28.3277 38.0455 28.4778C37.974 28.628 37.9007 28.7772 37.8255 28.9255C37.7504 29.0739 37.6735 29.2213 37.5947 29.3678C37.5159 29.5142 37.4353 29.6596 37.3528 29.804C37.2705 29.9484 37.1864 30.0917 37.1004 30.234C37.0145 30.3765 36.9269 30.5178 36.8374 30.6579C36.748 30.798 36.6569 30.937 36.564 31.0748C36.4711 31.2127 36.3765 31.3494 36.2803 31.4849C36.184 31.6205 36.0861 31.7548 35.9866 31.8879C35.887 32.0209 35.7858 32.1528 35.683 32.2834C35.5801 32.414 35.4756 32.5433 35.3697 32.6712C35.2636 32.7993 35.1561 32.9259 35.0469 33.0512C34.9377 33.1765 34.827 33.3005 34.7149 33.423C34.6026 33.5456 34.4888 33.6667 34.3737 33.7864C34.2585 33.9062 34.1418 34.0245 34.0236 34.1413C33.9055 34.2581 33.7859 34.3734 33.6648 34.4871C33.5438 34.601 33.4214 34.7134 33.2976 34.8242C33.1738 34.9351 33.0487 35.0443 32.9223 35.152C32.7957 35.2597 32.6679 35.3658 32.5389 35.4703C32.4098 35.5748 32.2793 35.6777 32.1476 35.7789C27.4883 39.3652 21.898 40.5818 16.1357 39.7488L16.0215 39.7316L22.1354 33.6468C25.5719 33.4251 28.6065 31.8506 30.8752 29.2514C32.0068 27.9549 32.982 26.5026 33.5147 24.8572C33.6883 24.3209 33.8037 23.5578 34.0554 23.081L34.1172 23.1486C34.1182 24.6353 33.011 26.619 32.1865 27.8071Z" fill="#4E4E4E"/>
<path d="M1.62494 11.8069C1.63507 11.7742 1.6444 11.7414 1.65579 11.7091C3.07835 7.6339 7.10165 4.03447 10.8659 2.15593C15.5179 -0.165545 21.4271 -0.698767 26.3768 0.98036C30.3817 2.33908 35.2859 5.71432 37.1799 9.58917L37.1344 9.75982C37.5697 10.7577 38.3844 11.8833 38.5932 12.9377C38.4743 13.0629 38.5393 13.0413 38.376 13.0446C38.0599 13.051 37.7363 12.9317 37.423 12.8827C36.4408 12.7297 35.4072 12.5413 34.4158 12.4746C33.9799 12.4454 32.6487 12.8511 32.4624 12.7916C32.4465 12.7866 32.2877 12.6334 32.2605 12.6055C31.7615 12.0925 31.4451 11.1536 30.8171 10.8062L30.7989 10.9249C30.104 10.2477 29.4218 9.51456 28.6604 8.9136C26.2154 6.98396 22.9508 6.01926 19.8653 6.06349C16.109 6.1172 12.6137 7.50823 9.99887 10.2423C9.45912 10.8068 8.40818 12.3142 8.04301 12.6365C7.43005 13.7701 6.77104 15.0214 6.52867 16.2983C6.42883 16.694 6.33832 17.0832 6.2751 17.4872L6.17512 17.4866C5.51329 17.4779 4.86375 17.3683 4.2042 17.3372C3.18353 17.2893 2.15079 17.4268 1.14276 17.5701C0.821751 17.6157 0.391443 17.616 0.09375 17.7184C0.184134 15.7933 0.756609 13.528 1.62494 11.8069Z" fill="#4E4E4E"/>
<path d="M1.62508 11.8069L1.703 11.9298C1.26395 13.0997 0.849059 14.2718 0.556925 15.4893C0.450267 15.9339 0.465865 16.414 0.337821 16.8399C0.572658 16.973 0.772659 17.0306 1.04256 17.0575C1.9294 17.1453 2.87391 16.9925 3.76425 16.9521C4.48737 16.9195 5.21223 16.9671 5.93427 16.9175L5.96929 16.8673L5.91414 16.7925L6.20153 16.8568C6.38418 16.1789 7.26578 13.039 7.88609 12.6989C7.9355 12.6718 7.99082 12.6573 8.04301 12.6364C7.43005 13.77 6.77105 15.0213 6.52868 16.2981C6.42883 16.6939 6.33831 17.0831 6.2751 17.4871L6.17512 17.4865C5.51329 17.4778 4.86374 17.3682 4.2042 17.3371C3.18353 17.2892 2.1508 17.4267 1.14276 17.5699C0.821757 17.6156 0.391443 17.6159 0.09375 17.7183C0.184268 15.7932 0.756745 13.5279 1.62508 11.8069Z" fill="#4E4E4E"/>
<path d="M6.52713 16.2982C15.1752 16.3663 23.8232 16.3656 32.4713 16.2961C31.0463 17.6581 29.6604 19.2123 28.1553 20.4737C27.4389 21.2565 24.7836 24.0808 24.0549 24.584C23.4303 25.2991 22.6938 25.962 22.0214 26.6337C20.7527 27.9077 19.4752 29.1729 18.1891 30.4294C15.711 32.8418 13.2876 35.3101 10.7783 37.69C8.32119 36.4997 6.31857 34.5773 4.54102 32.5412C5.57989 31.3079 6.78551 30.1844 7.91768 29.0361C9.04694 29.3414 10.0909 29.4824 11.2595 29.4852C12.7975 27.8449 14.3679 26.2365 15.9709 24.6598C16.6973 23.9356 17.4237 23.214 18.1204 22.461C15.7747 22.4907 13.4289 22.5078 11.083 22.5125C9.44919 22.506 7.80609 22.4383 6.17389 22.5174C5.94744 21.0692 6.01294 19.7266 6.13135 18.2694L6.27356 17.4871C6.33677 17.0832 6.42729 16.694 6.52713 16.2982Z" fill="#4E4E4E"/>
<path d="M50.1603 32V9.65H58.5003C60.0203 9.65 61.3603 9.93 62.5203 10.49C63.7003 11.03 64.6203 11.83 65.2803 12.89C65.9403 13.93 66.2703 15.2 66.2703 16.7C66.2703 18.18 65.9303 19.45 65.2503 20.51C64.5903 21.55 63.6803 22.35 62.5203 22.91C61.3603 23.47 60.0203 23.75 58.5003 23.75H54.2403V32H50.1603ZM54.2403 20.15H58.5603C59.3003 20.15 59.9403 20.01 60.4803 19.73C61.0203 19.43 61.4403 19.02 61.7403 18.5C62.0403 17.98 62.1903 17.38 62.1903 16.7C62.1903 16 62.0403 15.4 61.7403 14.9C61.4403 14.38 61.0203 13.98 60.4803 13.7C59.9403 13.4 59.3003 13.25 58.5603 13.25H54.2403V20.15ZM69.6135 32V9.65H84.4635V13.25H73.6935V18.98H83.8635V22.58H73.6935V28.4H84.4635V32H69.6135ZM85.6253 32L92.9453 20.75L85.6853 9.65H90.3653L96.3053 18.74H94.1453L100.055 9.65H104.735L97.5053 20.75L104.795 32H100.115L94.1453 22.79H96.3053L90.3053 32H85.6253ZM105.459 32L113.169 9.65H118.449L126.159 32H121.719L120.129 27.2H111.489L109.869 32H105.459ZM112.659 23.6H118.959L115.239 12.47H116.379L112.659 23.6Z" fill="#4E4E4E"/>
</svg>
