<svg width="127" height="40" viewBox="0 0 127 40" fill="none" xmlns="http://www.w3.org/2000/svg">
<path d="M0.0930495 17.7185C0.390788 17.6162 0.821051 17.6158 1.14206 17.5702C2.15009 17.4269 3.18287 17.2894 4.2035 17.3374C4.86304 17.3684 5.51259 17.478 6.17442 17.4868L6.2744 17.4873L6.13219 18.2696C6.01378 19.7268 5.94833 21.0693 6.17473 22.5176C6.21746 22.6995 6.27 22.8873 6.27664 23.0747C6.27785 23.1076 6.2761 23.279 6.27157 23.2918C6.14689 23.631 2.3674 27.173 1.72973 27.8198C0.215309 24.8134 -0.213924 21.0334 0.0930495 17.7185Z" fill="#4E4E4E"/>
<path d="M30.7988 10.9246L30.817 10.8059C31.4451 11.1533 31.7615 12.0922 32.2604 12.6052C32.2876 12.6331 32.4464 12.7862 32.4624 12.7913C32.6487 12.8508 33.9799 12.4451 34.4158 12.4743C35.4072 12.541 36.4408 12.7294 37.4229 12.8824C37.7362 12.9314 38.0599 13.0506 38.376 13.0443C38.5392 13.041 38.4742 13.0626 38.5931 12.9374C38.3844 11.883 37.5697 10.7574 37.1343 9.75953L37.1799 9.58887C39.4977 13.2996 40.3825 17.9482 39.8511 22.2762L39.7187 22.3331C39.5361 23.3401 38.7739 27.2242 38.0962 27.8423C37.8023 27.7869 37.5074 27.737 37.2153 27.6729C36.4997 27.5158 32.9838 27.5883 32.1876 27.8067C33.0122 26.6186 34.1193 24.6349 34.1183 23.1483L34.0565 23.0807C34.6831 18.1977 33.7899 14.8365 30.7988 10.9246Z" fill="#4E4E4E"/>
<path d="M32.1865 27.8068C32.9826 27.5885 36.4986 27.5159 37.2142 27.673C37.5063 27.7371 37.8012 27.787 38.095 27.8425C38.7728 27.2243 39.5349 23.3403 39.7176 22.3333L39.85 22.2764C39.8297 22.4415 39.8073 22.6064 39.7829 22.7709C39.7586 22.9355 39.7323 23.0997 39.7037 23.2636C39.6752 23.4274 39.6448 23.5909 39.6123 23.7541C39.5799 23.9172 39.5454 24.08 39.5088 24.2423C39.4723 24.4045 39.4338 24.5663 39.3932 24.7278C39.3527 24.8891 39.3102 25.0498 39.2657 25.21C39.2212 25.3704 39.1748 25.5301 39.1263 25.6891C39.0779 25.8483 39.0275 26.0068 38.9752 26.1646C38.9228 26.3225 38.8684 26.4796 38.8121 26.6361C38.7559 26.7927 38.6977 26.9485 38.6377 27.1034C38.5776 27.2585 38.5155 27.4128 38.4515 27.5664C38.3876 27.72 38.3218 27.8727 38.2542 28.0244C38.1865 28.1764 38.1169 28.3274 38.0455 28.4776C37.974 28.6277 37.9007 28.777 37.8255 28.9253C37.7504 29.0737 37.6735 29.2211 37.5947 29.3675C37.5159 29.514 37.4353 29.6594 37.3528 29.8038C37.2705 29.9481 37.1864 30.0915 37.1004 30.2338C37.0145 30.3762 36.9269 30.5175 36.8374 30.6576C36.748 30.7977 36.6569 30.9367 36.564 31.0746C36.4711 31.2125 36.3765 31.3492 36.2803 31.4847C36.184 31.6202 36.0861 31.7545 35.9866 31.8876C35.887 32.0207 35.7858 32.1526 35.683 32.2832C35.5801 32.4138 35.4756 32.5431 35.3697 32.671C35.2636 32.799 35.1561 32.9257 35.0469 33.0509C34.9377 33.1763 34.827 33.3002 34.7149 33.4228C34.6026 33.5453 34.4888 33.6665 34.3737 33.7862C34.2585 33.9059 34.1418 34.0242 34.0236 34.141C33.9055 34.2579 33.7859 34.3731 33.6648 34.4869C33.5438 34.6008 33.4214 34.7131 33.2976 34.824C33.1738 34.9348 33.0487 35.0441 32.9223 35.1518C32.7957 35.2594 32.6679 35.3656 32.5389 35.4701C32.4098 35.5745 32.2793 35.6775 32.1476 35.7787C27.4883 39.3649 21.898 40.5816 16.1357 39.7485L16.0215 39.7313L22.1354 33.6466C25.5719 33.4248 28.6065 31.8504 30.8752 29.2512C32.0068 27.9546 32.982 26.5024 33.5147 24.8569C33.6883 24.3206 33.8037 23.5576 34.0554 23.0808L34.1172 23.1484C34.1182 24.6351 33.011 26.6188 32.1865 27.8068Z" fill="#4E4E4E"/>
<path d="M1.62494 11.8069C1.63507 11.7742 1.6444 11.7414 1.65579 11.7091C3.07835 7.6339 7.10165 4.03447 10.8659 2.15593C15.5179 -0.165545 21.4271 -0.698767 26.3768 0.98036C30.3817 2.33908 35.2859 5.71432 37.1799 9.58917L37.1344 9.75982C37.5697 10.7577 38.3844 11.8833 38.5932 12.9377C38.4743 13.0629 38.5393 13.0413 38.376 13.0446C38.0599 13.051 37.7363 12.9317 37.423 12.8827C36.4408 12.7297 35.4072 12.5413 34.4158 12.4746C33.9799 12.4454 32.6487 12.8511 32.4624 12.7916C32.4465 12.7866 32.2877 12.6334 32.2605 12.6055C31.7615 12.0925 31.4451 11.1536 30.8171 10.8062L30.7989 10.9249C30.104 10.2477 29.4218 9.51456 28.6604 8.9136C26.2154 6.98396 22.9508 6.01926 19.8653 6.06349C16.109 6.1172 12.6137 7.50823 9.99887 10.2423C9.45912 10.8068 8.40818 12.3142 8.04301 12.6365C7.43005 13.7701 6.77104 15.0214 6.52867 16.2983C6.42883 16.694 6.33832 17.0832 6.2751 17.4872L6.17512 17.4866C5.51329 17.4779 4.86375 17.3683 4.2042 17.3372C3.18353 17.2893 2.15079 17.4268 1.14276 17.5701C0.821751 17.6157 0.391443 17.616 0.09375 17.7184C0.184134 15.7933 0.756609 13.528 1.62494 11.8069Z" fill="#4E4E4E"/>
<path d="M1.62508 11.8066L1.703 11.9295C1.26395 13.0995 0.849059 14.2716 0.556925 15.4891C0.450267 15.9336 0.465865 16.4138 0.337821 16.8397C0.572658 16.9728 0.772659 17.0304 1.04256 17.0572C1.9294 17.145 2.87391 16.9923 3.76425 16.9519C4.48737 16.9192 5.21223 16.9668 5.93427 16.9173L5.96929 16.8671L5.91414 16.7923L6.20153 16.8566C6.38418 16.1787 7.26578 13.0387 7.88609 12.6987C7.9355 12.6716 7.99082 12.657 8.04301 12.6361C7.43005 13.7697 6.77105 15.021 6.52868 16.2979C6.42883 16.6936 6.33831 17.0829 6.2751 17.4868L6.17512 17.4863C5.51329 17.4775 4.86374 17.3679 4.2042 17.3369C3.18353 17.289 2.1508 17.4264 1.14276 17.5697C0.821757 17.6154 0.391443 17.6157 0.09375 17.7181C0.184268 15.793 0.756745 13.5277 1.62508 11.8066Z" fill="#4E4E4E"/>
<path d="M6.52713 16.298C15.1752 16.366 23.8232 16.3653 32.4713 16.2959C31.0463 17.6579 29.6604 19.212 28.1553 20.4734C27.4389 21.2563 24.7836 24.0806 24.0549 24.5838C23.4303 25.2988 22.6938 25.9617 22.0214 26.6334C20.7527 27.9074 19.4752 29.1727 18.1891 30.4291C15.711 32.8416 13.2876 35.3098 10.7783 37.6898C8.32119 36.4995 6.31857 34.577 4.54102 32.541C5.57989 31.3077 6.78551 30.1842 7.91768 29.0359C9.04694 29.3412 10.0909 29.4822 11.2595 29.485C12.7975 27.8447 14.3679 26.2363 15.9709 24.6596C16.6973 23.9354 17.4237 23.2138 18.1204 22.4608C15.7747 22.4904 13.4289 22.5075 11.083 22.5123C9.44919 22.5057 7.80609 22.438 6.17389 22.5172C5.94744 21.0689 6.01294 19.7264 6.13135 18.2692L6.27356 17.4869C6.33677 17.083 6.42729 16.6937 6.52713 16.298Z" fill="#4E4E4E"/>
<path d="M50.1605 32V9.65H58.5005C60.0205 9.65 61.3605 9.93 62.5205 10.49C63.7005 11.03 64.6205 11.83 65.2805 12.89C65.9405 13.93 66.2705 15.2 66.2705 16.7C66.2705 18.18 65.9305 19.45 65.2505 20.51C64.5905 21.55 63.6805 22.35 62.5205 22.91C61.3605 23.47 60.0205 23.75 58.5005 23.75H54.2405V32H50.1605ZM54.2405 20.15H58.5605C59.3005 20.15 59.9405 20.01 60.4805 19.73C61.0205 19.43 61.4405 19.02 61.7405 18.5C62.0405 17.98 62.1905 17.38 62.1905 16.7C62.1905 16 62.0405 15.4 61.7405 14.9C61.4405 14.38 61.0205 13.98 60.4805 13.7C59.9405 13.4 59.3005 13.25 58.5605 13.25H54.2405V20.15ZM69.6136 32V9.65H84.4636V13.25H73.6936V18.98H83.8636V22.58H73.6936V28.4H84.4636V32H69.6136ZM85.6254 32L92.9454 20.75L85.6854 9.65H90.3654L96.3054 18.74H94.1454L100.055 9.65H104.735L97.5054 20.75L104.795 32H100.115L94.1454 22.79H96.3054L90.3054 32H85.6254ZM105.459 32L113.169 9.65H118.449L126.159 32H121.719L120.129 27.2H111.489L109.869 32H105.459ZM112.659 23.6H118.959L115.239 12.47H116.379L112.659 23.6Z" fill="black"/>
</svg>
