<svg width="44" height="44" viewBox="0 0 44 44" fill="none" xmlns="http://www.w3.org/2000/svg">
<g clip-path="url(#clip0_4111_168)">
<path d="M33.5024 15.9898L19.8485 2.04933C19.395 1.59305 18.8554 1.23129 18.2611 0.984997C17.6667 0.738706 17.0294 0.612783 16.3861 0.61452C15.0882 0.615933 13.8438 1.13216 12.926 2.04993C12.0083 2.9677 11.4921 4.21205 11.4906 5.50997C11.4906 6.81661 11.9998 8.04671 12.9326 8.97773L16.4128 12.3778C10.3015 14.7366 6.15015 20.6788 6.15015 27.317C6.15015 36.152 13.3367 43.3385 22.1716 43.3385C31.0066 43.3385 38.1931 36.152 38.1931 27.317C38.1989 25.2126 37.7873 23.1279 36.9821 21.1836C36.177 19.2393 34.9942 17.474 33.5024 15.9898Z" fill="#4E4E4E"/>
<path d="M31.9753 25.1798L23.6922 16.8949C22.3624 15.5669 20.2013 15.5669 18.8715 16.8949C17.5417 18.2229 17.5435 20.3858 18.8715 21.7156L20.9134 23.7557H15.0513C13.0878 23.7557 11.491 25.3525 11.491 27.316C11.491 29.2795 13.0878 30.8763 15.0513 30.8763H20.9134L18.8715 32.9164C18.2332 33.5562 17.8747 34.423 17.8747 35.3268C17.8747 36.2305 18.2332 37.0973 18.8715 37.7371C19.5373 38.4011 20.4096 38.734 21.2819 38.734C22.1542 38.734 23.0264 38.4011 23.6922 37.7371L31.9753 29.4522C32.541 28.8852 32.8587 28.117 32.8587 27.316C32.8587 26.5151 32.541 25.7468 31.9753 25.1798Z" fill="white"/>
<path opacity="0.2" d="M16.3864 1.05956C17.6931 1.05956 18.9232 1.56869 19.8471 2.49437L33.5027 16.4331C36.4579 19.3766 38.1387 23.3633 38.1828 27.5342C38.1828 27.463 38.1934 27.3918 38.1934 27.317C38.1992 25.2126 37.7876 23.1279 36.9825 21.1836C36.1773 19.2393 34.9946 17.474 33.5027 15.9898L19.8488 2.04933C19.3953 1.59305 18.8557 1.23129 18.2614 0.984997C17.6671 0.738706 17.0298 0.612783 16.3864 0.61452C15.0885 0.615933 13.8441 1.13216 12.9264 2.04993C12.0086 2.9677 11.4924 4.21205 11.491 5.50997C11.491 5.58652 11.5088 5.65951 11.5123 5.73605C11.5673 4.47926 12.1045 3.29199 13.0122 2.42104C13.92 1.5501 15.1284 1.06248 16.3864 1.05956Z" fill="white"/>
<path opacity="0.1" d="M22.1716 42.8917C13.4275 42.8917 6.31036 35.8494 6.16439 27.139C6.16439 27.1996 6.15015 27.2565 6.15015 27.3153C6.15015 36.1502 13.3367 43.3367 22.1716 43.3367C31.0066 43.3367 38.1931 36.1502 38.1931 27.3153C38.1931 27.2387 38.1824 27.1639 38.1824 27.0874C38.0632 35.8227 30.9336 42.8917 22.1716 42.8917Z" fill="#010101"/>
<path opacity="0.2" d="M14.9084 24.2015H21.3687L20.9147 23.7565H15.0526C13.527 23.7565 12.2311 24.7285 11.7273 26.0814C12.0408 25.512 12.5014 25.0373 13.0609 24.7066C13.6205 24.376 14.2585 24.2015 14.9084 24.2015ZM18.807 17.3408C20.1617 16.0128 22.3673 16.0128 23.7238 17.3408L32.1743 25.6257C32.3808 25.8268 32.5445 26.0493 32.6798 26.2861C32.5298 25.8703 32.2897 25.4928 31.9767 25.1806L23.6936 16.8957C23.0538 16.2574 22.187 15.8989 21.2832 15.8989C20.3795 15.8989 19.5126 16.2574 18.8729 16.8957C18.3157 17.4547 18.0059 18.1597 17.9169 18.8895C18.0682 18.3234 18.3548 17.7858 18.807 17.3408Z" fill="white"/>
<path opacity="0.1" d="M14.9084 30.4308H21.3687L20.9147 30.8758H15.0526C14.3274 30.8735 13.6203 30.6496 13.0259 30.234C12.4316 29.8185 11.9785 29.2312 11.7273 28.5509C12.0408 29.1203 12.5014 29.595 13.0609 29.9257C13.6205 30.2563 14.2585 30.4308 14.9084 30.4308ZM18.807 37.2915C20.1617 38.6195 22.3673 38.6195 23.7238 37.2915L32.1743 29.0066C32.3808 28.8055 32.5445 28.583 32.6798 28.3462C32.5339 28.7503 32.3007 29.1295 31.9767 29.4517L23.6936 37.7366C23.0538 38.3749 22.187 38.7334 21.2832 38.7334C20.3795 38.7334 19.5126 38.3749 18.8729 37.7366C18.3393 37.1982 18.0025 36.4959 17.9169 35.7428C18.0682 36.3089 18.3548 36.8465 18.807 37.2915Z" fill="#010101"/>
<path d="M31.9745 25.1821C32.5402 25.7491 32.8579 26.5174 32.8579 27.3183C32.8579 28.1193 32.5402 28.8875 31.9745 29.4545L23.6914 37.7394C23.0256 38.4034 22.1534 38.7363 21.2811 38.7363C20.4088 38.7363 19.5365 38.4034 18.8707 37.7394L24.3127 43.1796C27.5258 42.7416 30.5308 41.34 32.9311 39.1596C35.3315 36.9791 37.0145 34.1223 37.7583 30.9659L31.9745 25.1821ZM20.9126 30.8787H15.0505C14.107 30.8787 13.2525 30.503 12.6152 29.8996L17.8899 35.176C17.9218 34.3271 18.2719 33.5213 18.8707 32.9187L20.9126 30.8787Z" fill="url(#paint0_linear_4111_168)"/>
<path d="M33.5024 15.9898L19.8485 2.04933C19.395 1.59305 18.8554 1.23129 18.2611 0.984997C17.6667 0.738706 17.0294 0.612783 16.3861 0.61452C15.0882 0.615933 13.8438 1.13216 12.926 2.04993C12.0083 2.9677 11.4921 4.21205 11.4906 5.50997C11.4906 6.81661 11.9998 8.04671 12.9326 8.97773L16.4128 12.3778C10.3015 14.7366 6.15015 20.6788 6.15015 27.317C6.15015 36.152 13.3367 43.3385 22.1716 43.3385C31.0066 43.3385 38.1931 36.152 38.1931 27.317C38.1989 25.2126 37.7873 23.1279 36.9821 21.1836C36.177 19.2393 34.9942 17.474 33.5024 15.9898Z" fill="url(#paint1_linear_4111_168)"/>
</g>
<defs>
<linearGradient id="paint0_linear_4111_168" x1="18.2388" y1="24.276" x2="33.0391" y2="39.0763" gradientUnits="userSpaceOnUse">
<stop stop-color="#010101" stop-opacity="0.1"/>
<stop offset="1" stop-color="#010101" stop-opacity="0"/>
</linearGradient>
<linearGradient id="paint1_linear_4111_168" x1="5.94009" y1="16.3298" x2="38.0009" y2="31.2796" gradientUnits="userSpaceOnUse">
<stop stop-color="white" stop-opacity="0.2"/>
<stop offset="1" stop-color="white" stop-opacity="0"/>
</linearGradient>
<clipPath id="clip0_4111_168">
<rect width="42.724" height="42.724" fill="white" transform="translate(0.809326 0.614502)"/>
</clipPath>
</defs>
</svg>
