<svg width="29" height="44" viewBox="0 0 29 44" fill="none" xmlns="http://www.w3.org/2000/svg">
<path d="M7.46458 43.3384C11.4557 43.3384 14.6948 40.1982 14.6948 36.329V29.3196H7.46458C3.47351 29.3196 0.234375 32.4598 0.234375 36.329C0.234375 40.1982 3.47351 43.3384 7.46458 43.3384Z" fill="#4E4E4E"/>
<path d="M0.234375 21.9765C0.234375 17.923 3.47351 14.6333 7.46458 14.6333H14.6948V29.3197H7.46458C3.47351 29.3197 0.234375 26.0299 0.234375 21.9765Z" fill="#4E4E4E"/>
<path d="M0.234375 7.6239C0.234375 3.75471 3.47351 0.614502 7.46458 0.614502H14.6948V14.6333H7.46458C3.47351 14.6333 0.234375 11.4931 0.234375 7.6239Z" fill="#4E4E4E"/>
<path d="M14.6948 0.614502H21.5964C25.406 0.614502 28.4979 3.75471 28.4979 7.6239C28.4979 11.4931 25.406 14.6333 21.5964 14.6333H14.6948V0.614502Z" fill="#4E4E4E"/>
<path d="M28.4979 21.9765C28.4979 26.0299 25.406 29.3197 21.5964 29.3197C17.7867 29.3197 14.6948 26.0299 14.6948 21.9765C14.6948 17.923 17.7867 14.6333 21.5964 14.6333C25.406 14.6333 28.4979 17.923 28.4979 21.9765Z" fill="#4E4E4E"/>
</svg>
