<svg width="44" height="44" viewBox="0 0 44 44" fill="none" xmlns="http://www.w3.org/2000/svg">
<g clip-path="url(#clip0_4111_157)">
<path d="M21.7204 0.617188C9.94103 0.617188 0.358398 10.1998 0.358398 21.9792C0.358398 32.1938 7.39005 41.1693 17.0777 43.3198C17.2077 43.3479 17.3423 43.3466 17.4717 43.316C17.6011 43.2855 17.7221 43.2264 17.8258 43.1432C17.9295 43.06 18.0133 42.9547 18.0711 42.8349C18.129 42.7152 18.1593 42.584 18.16 42.4511V37.1106C18.16 36.8745 18.0663 36.6481 17.8993 36.4812C17.7324 36.3143 17.506 36.2205 17.27 36.2205H15.4898C13.3803 36.2205 11.4969 33.6179 9.98197 31.528C9.83494 31.3239 9.68719 31.1204 9.53871 30.9174C10.1618 31.2093 10.767 31.5137 11.2708 31.7665C12.7305 32.4982 14.112 33.1906 15.2406 33.5129C15.2886 33.5307 15.3492 33.5591 15.4186 33.5894C15.853 33.7852 16.6594 34.1484 17.3839 33.6784C18.16 33.1764 18.16 32.1172 18.16 31.7701V31.1488C18.1596 30.9553 18.0961 30.7672 17.9792 30.613C17.8623 30.4588 17.6983 30.3469 17.5121 30.2943C12.5757 28.8933 9.25922 25.1941 9.25922 21.0891C9.25922 18.9529 10.1368 16.9146 11.796 15.1932C11.9209 15.0639 12.0038 14.8998 12.0337 14.7225C12.0635 14.5451 12.039 14.3629 11.9633 14.1998C11.3011 12.7722 11.4417 10.83 12.2268 9.66399C13.2664 10.0681 14.6122 10.9172 15.4898 11.9568C15.6073 12.0966 15.765 12.1969 15.9414 12.244C16.1178 12.2911 16.3045 12.2829 16.476 12.2203C19.8652 10.9966 23.5756 10.9966 26.9647 12.2203C27.319 12.3503 27.7124 12.2434 27.951 11.9568C28.8268 10.9172 30.1744 10.0699 31.214 9.66399C31.999 10.83 32.1397 12.7722 31.4775 14.1998C31.4018 14.3629 31.3772 14.5451 31.4071 14.7225C31.437 14.8998 31.5198 15.0639 31.6448 15.1932C33.3039 16.9146 34.1815 18.9529 34.1815 21.0891C34.1815 25.4006 30.4966 29.26 25.222 30.4777C25.0893 30.5083 24.9653 30.569 24.8598 30.6551C24.7542 30.7411 24.6698 30.8503 24.6131 30.9741C24.5563 31.0979 24.5287 31.2331 24.5325 31.3692C24.5362 31.5054 24.5711 31.6389 24.6345 31.7594C25.076 32.5961 25.2807 33.73 25.2807 35.3304V42.4511C25.2808 42.5842 25.3107 42.7157 25.3683 42.8358C25.4259 42.9559 25.5098 43.0615 25.6136 43.1449C25.7175 43.2282 25.8388 43.2872 25.9685 43.3175C26.0982 43.3478 26.233 43.3486 26.363 43.3198C36.0507 41.1693 43.0824 32.1938 43.0824 21.9792C43.0824 10.1998 33.4997 0.617188 21.7204 0.617188Z" fill="#4E4E4E"/>
<path d="M17.5107 30.7359C17.6972 30.7886 17.8614 30.9008 17.9783 31.0553C18.0953 31.2099 18.1586 31.3984 18.1586 31.5922V31.1471C18.1582 30.9536 18.0947 30.7656 17.9778 30.6114C17.8609 30.4572 17.6969 30.3453 17.5107 30.2927C12.6668 28.9184 9.40023 25.3278 9.28095 21.3135C9.27917 21.3865 9.25781 21.4577 9.25781 21.5325C9.25781 25.6393 12.5743 29.3385 17.5107 30.7359ZM25.2206 30.9211C30.4952 29.7034 34.1801 25.844 34.1801 21.5325C34.1801 21.4559 34.1588 21.3829 34.157 21.3064C34.0324 25.5272 30.4044 29.2815 25.2206 30.4742C25.0877 30.5051 24.9636 30.5661 24.8581 30.6525C24.7525 30.739 24.6682 30.8485 24.6117 30.9727C24.5335 31.1596 24.5228 31.368 24.5815 31.5619C24.5939 31.5139 24.5904 31.464 24.6117 31.4195C24.6682 31.2953 24.7525 31.1858 24.8581 31.0994C24.9636 31.0129 25.0877 30.9519 25.2206 30.9211Z" fill="white" fill-opacity="0.12549"/>
<path d="M21.7204 0.619629C9.94103 0.619629 0.358398 10.2023 0.358398 21.9816C0.358398 22.0617 0.367299 22.1418 0.369079 22.2219C0.47945 10.5387 10.0105 1.06467 21.7204 1.06467C33.4303 1.06467 42.9613 10.5387 43.0717 22.2219C43.0717 22.1418 43.0824 22.0617 43.0824 21.9816C43.0824 10.2023 33.4997 0.619629 21.7204 0.619629Z" fill="white" fill-opacity="0.12549"/>
<path d="M17.0777 43.3234C17.2077 43.3514 17.3423 43.3502 17.4717 43.3196C17.6011 43.2891 17.7221 43.23 17.8258 43.1468C17.9295 43.0636 18.0133 42.9582 18.0711 42.8385C18.129 42.7187 18.1593 42.5876 18.16 42.4546V42.0096C18.16 42.1428 18.1301 42.2743 18.0724 42.3943C18.0148 42.5144 17.931 42.62 17.8271 42.7034C17.7232 42.7868 17.602 42.8458 17.4723 42.876C17.3426 42.9063 17.2077 42.9071 17.0777 42.8783C7.46482 40.7457 0.47945 31.8929 0.369079 21.778C0.369079 21.8474 0.358398 21.9133 0.358398 21.9827C0.358398 32.1973 7.39005 41.1729 17.0777 43.3234ZM26.363 42.8783C26.233 42.9067 26.0983 42.9057 25.9688 42.8753C25.8392 42.8449 25.7181 42.7859 25.6143 42.7026C25.5105 42.6193 25.4267 42.5138 25.369 42.3939C25.3112 42.274 25.2811 42.1427 25.2807 42.0096V42.4546C25.2808 42.5878 25.3107 42.7193 25.3683 42.8394C25.4259 42.9594 25.5098 43.0651 25.6136 43.1484C25.7175 43.2318 25.8388 43.2908 25.9685 43.3211C26.0982 43.3513 26.233 43.3521 26.363 43.3234C36.0507 41.1729 43.0824 32.1973 43.0824 21.9827C43.0824 21.9133 43.0735 21.8474 43.0717 21.778C42.9613 31.8929 35.9742 40.7457 26.363 42.8783ZM31.214 9.22607C30.1744 9.63195 28.8286 10.4811 27.951 11.5207C27.8337 11.6608 27.676 11.7612 27.4994 11.808C27.3228 11.8549 27.136 11.8459 26.9647 11.7824C23.5756 10.5587 19.8652 10.5587 16.476 11.7824C16.3046 11.8451 16.1181 11.8537 15.9417 11.8069C15.7653 11.7601 15.6075 11.6602 15.4898 11.5207C14.614 10.4811 13.2664 9.63195 12.2268 9.22607C11.7782 9.89364 11.5681 10.8104 11.5699 11.7432C11.6322 10.9706 11.8511 10.2301 12.2285 9.67112C13.2664 10.077 14.614 10.9261 15.4898 11.9657C15.6075 12.1052 15.7653 12.2051 15.9417 12.2519C16.1181 12.2987 16.3046 12.2902 16.476 12.2274C19.8652 11.0038 23.5756 11.0038 26.9647 12.2274C27.319 12.3592 27.7124 12.2524 27.951 11.9657C28.8268 10.9261 30.1744 10.077 31.214 9.67112C31.5896 10.2301 31.8086 10.9706 31.8709 11.7432C31.8709 10.8122 31.6644 9.89186 31.214 9.22607Z" fill="#010101" fill-opacity="0.0627451"/>
<path d="M21.7204 0.617188C9.94103 0.617188 0.358398 10.1998 0.358398 21.9792C0.358398 32.1938 7.39005 41.1693 17.0777 43.3198C17.2077 43.3479 17.3423 43.3466 17.4717 43.316C17.6011 43.2855 17.7221 43.2264 17.8258 43.1432C17.9295 43.06 18.0133 42.9547 18.0711 42.8349C18.129 42.7152 18.1593 42.584 18.16 42.4511V37.1106C18.16 36.8745 18.0663 36.6481 17.8993 36.4812C17.7324 36.3143 17.506 36.2205 17.27 36.2205H15.4898C13.3803 36.2205 11.4969 33.6179 9.98197 31.528C9.83494 31.3239 9.68719 31.1204 9.53871 30.9174C10.1618 31.2093 10.767 31.5137 11.2708 31.7665C12.7305 32.4982 14.112 33.1906 15.2406 33.5129C15.2886 33.5307 15.3492 33.5591 15.4186 33.5894C15.853 33.7852 16.6594 34.1484 17.3839 33.6784C18.16 33.1764 18.16 32.1172 18.16 31.7701V31.1488C18.1596 30.9553 18.0961 30.7672 17.9792 30.613C17.8623 30.4588 17.6983 30.3469 17.5121 30.2943C12.5757 28.8933 9.25922 25.1941 9.25922 21.0891C9.25922 18.9529 10.1368 16.9146 11.796 15.1932C11.9209 15.0639 12.0038 14.8998 12.0337 14.7225C12.0635 14.5451 12.039 14.3629 11.9633 14.1998C11.3011 12.7722 11.4417 10.83 12.2268 9.66399C13.2664 10.0681 14.6122 10.9172 15.4898 11.9568C15.6073 12.0966 15.765 12.1969 15.9414 12.244C16.1178 12.2911 16.3045 12.2829 16.476 12.2203C19.8652 10.9966 23.5756 10.9966 26.9647 12.2203C27.319 12.3503 27.7124 12.2434 27.951 11.9568C28.8268 10.9172 30.1744 10.0699 31.214 9.66399C31.999 10.83 32.1397 12.7722 31.4775 14.1998C31.4018 14.3629 31.3772 14.5451 31.4071 14.7225C31.437 14.8998 31.5198 15.0639 31.6448 15.1932C33.3039 16.9146 34.1815 18.9529 34.1815 21.0891C34.1815 25.4006 30.4966 29.26 25.222 30.4777C25.0893 30.5083 24.9653 30.569 24.8598 30.6551C24.7542 30.7411 24.6698 30.8503 24.6131 30.9741C24.5563 31.0979 24.5287 31.2331 24.5325 31.3692C24.5362 31.5054 24.5711 31.6389 24.6345 31.7594C25.076 32.5961 25.2807 33.73 25.2807 35.3304V42.4511C25.2808 42.5842 25.3107 42.7157 25.3683 42.8358C25.4259 42.9559 25.5098 43.0615 25.6136 43.1449C25.7175 43.2282 25.8388 43.2872 25.9685 43.3175C26.0982 43.3478 26.233 43.3486 26.363 43.3198C36.0507 41.1693 43.0824 32.1938 43.0824 21.9792C43.0824 10.1998 33.4997 0.617188 21.7204 0.617188Z" fill="url(#paint0_linear_4111_157)"/>
</g>
<defs>
<linearGradient id="paint0_linear_4111_157" x1="2.2703" y1="13.1442" x2="41.0619" y2="31.2325" gradientUnits="userSpaceOnUse">
<stop stop-color="white" stop-opacity="0.2"/>
<stop offset="1" stop-color="white" stop-opacity="0"/>
</linearGradient>
<clipPath id="clip0_4111_157">
<rect width="42.724" height="42.724" fill="white" transform="translate(0.358398 0.614502)"/>
</clipPath>
</defs>
</svg>
