<svg width="66" height="65" viewBox="0 0 66 65" fill="none" xmlns="http://www.w3.org/2000/svg">
<g clip-path="url(#clip0_4153_127)">
<path d="M24.8067 25.1172H12.2093C11.1574 25.1172 10.3047 25.9699 10.3047 27.0218V51.5625C10.3047 52.6143 11.1574 53.4671 12.2093 53.4671H24.8068C25.8587 53.4671 26.7114 52.6143 26.7114 51.5625V27.0218C26.7113 25.9699 25.8587 25.1172 24.8067 25.1172ZM14.1139 37.1067H22.9022V41.4777H14.1139V37.1067ZM22.9021 28.9264V33.2975H14.1137V28.9264H22.9021ZM14.1139 49.6579V45.2868H22.9022V49.6579H14.1139Z" fill="#222222"/>
<path d="M59.1797 0.00683594H6.82007C3.33516 0.00683594 0.499969 2.84203 0.499969 6.32707V58.6733C0.499969 62.1582 3.33516 64.9934 6.82007 64.9934H59.1796C62.6646 64.9934 65.4998 62.1582 65.4998 58.6733V6.32707C65.5 2.84203 62.6648 0.00683594 59.1797 0.00683594ZM6.82007 3.81604H59.1796C60.5641 3.81604 61.6906 4.94242 61.6906 6.32694V15.0198H4.30917V6.32707C4.30917 4.94242 5.43555 3.81604 6.82007 3.81604ZM59.1797 61.1842H6.82007C5.43555 61.1842 4.30917 60.0578 4.30917 58.6733V18.8291H61.6908V58.6733C61.6908 60.0578 60.5643 61.1842 59.1797 61.1842Z" fill="#222222"/>
<path d="M10.063 11.4467C11.1221 11.4467 11.9806 10.5887 11.9806 9.53029C11.8796 6.98828 8.24604 6.98892 8.14548 9.53029C8.14548 10.5887 9.00395 11.4467 10.063 11.4467Z" fill="#222222"/>
<path d="M17.8609 11.4467C18.92 11.4467 19.7784 10.5887 19.7784 9.53024C19.6775 6.98824 16.0439 6.989 15.9433 9.53024C15.9433 10.5887 16.8018 11.4467 17.8609 11.4467Z" fill="#222222"/>
<path d="M26.0113 11.4467C27.0704 11.4467 27.9288 10.5887 27.9288 9.53029C27.8279 6.98828 24.1943 6.98892 24.0937 9.53029C24.0937 10.5887 24.9522 11.4467 26.0113 11.4467Z" fill="#222222"/>
<path d="M50.3614 24.0099C49.0066 23.7677 47.6407 24.067 46.516 24.8539C46.0227 25.199 45.602 25.6198 45.2653 26.0976L40.6965 25.2795C40.2752 23.2901 38.685 21.6494 36.5623 21.2693C35.2076 21.0273 33.8416 21.3264 32.7166 22.1133C31.5962 22.8971 30.8497 24.0706 30.6146 25.4176C30.1297 28.1961 32 30.862 34.784 31.3606C36.7897 31.7531 38.9791 30.7806 40.0392 29.0315L44.3997 29.8123C44.5282 30.639 44.8566 31.4208 45.3482 32.0883L42.4067 36.1936C42.3266 36.1753 42.2457 36.1584 42.164 36.1437C39.457 35.6009 36.6352 37.5619 36.2164 40.2922C35.7315 43.0706 37.6018 45.7366 40.3858 46.2352C40.8903 46.3252 41.396 46.3415 41.9004 46.282L44.8225 50.5129C42.9963 53.5136 44.8863 57.6012 48.3607 58.1735C49.699 58.4154 51.0809 58.1195 52.2063 57.3295C55.9304 54.7442 54.5963 48.8679 50.1388 48.082C49.3625 47.9432 48.5832 47.9831 47.8473 48.1896L45.2579 44.4403C45.8081 43.7694 46.1803 42.9655 46.3335 42.087C46.5687 40.7398 46.2488 39.42 45.541 38.3599L48.5912 34.1026C49.9271 34.3423 51.3057 34.0456 52.4286 33.2574C56.1536 30.671 54.8184 24.7961 50.3614 24.0099ZM36.4462 27.3955C36.1576 27.5973 35.8063 27.6743 35.4553 27.6111C34.3104 27.4162 33.9407 25.8989 34.9001 25.2347C35.1889 25.0319 35.5462 24.9562 35.891 25.0191C37.0359 25.2141 37.4056 26.7313 36.4462 27.3955ZM39.9691 40.9475C40.0288 40.6058 40.2181 40.3082 40.5021 40.1093C40.7909 39.9064 41.1482 39.8309 41.4929 39.8937C42.6378 40.0887 43.0076 41.606 42.0482 42.2702C42.0218 42.2886 41.9945 42.3048 41.9672 42.3211C41.8987 42.3495 41.8314 42.382 41.7654 42.419C41.5431 42.5046 41.3004 42.5296 41.0574 42.4858C40.3319 42.3559 39.8437 41.6658 39.9691 40.9475ZM49.2291 51.8106C49.3083 51.8106 49.3881 51.8176 49.4679 51.8319C50.1934 51.9617 50.6816 52.6519 50.5561 53.3703C50.4965 53.712 50.3072 54.0096 50.0231 54.2085C49.7345 54.4102 49.3832 54.4873 49.0322 54.4241C48.3067 54.2943 47.8185 53.6041 47.9439 52.8857C48.0036 52.5441 48.1929 52.2465 48.477 52.0476C48.6999 51.8919 48.9606 51.8106 49.2291 51.8106ZM50.7784 29.2981C50.7187 29.6396 50.5294 29.9374 50.2452 30.1362C49.9567 30.338 49.6049 30.4149 49.2545 30.3518C49.2544 30.3518 49.2544 30.3518 49.2543 30.3518C49.1639 30.3357 49.0756 30.3107 48.9916 30.2772C48.931 30.2532 48.8736 30.224 48.8184 30.1922C48.8137 30.1895 48.8089 30.187 48.8042 30.1843C48.3342 29.9059 48.071 29.36 48.1664 28.8135C48.2261 28.472 48.4154 28.1742 48.6995 27.9754C48.9883 27.7725 49.3456 27.6969 49.6902 27.7598C50.4156 27.8894 50.9038 28.5795 50.7784 29.2981Z" fill="#222222"/>
</g>
<defs>
<clipPath id="clip0_4153_127">
<rect width="65" height="65" fill="white" transform="translate(0.5)"/>
</clipPath>
</defs>
</svg>
