<svg width="66" height="65" viewBox="0 0 66 65" fill="none" xmlns="http://www.w3.org/2000/svg">
<g clip-path="url(#clip0_4153_136)">
<path d="M56.4508 19.7318L58.0138 17.9791C60.0391 15.7228 59.851 12.2392 57.5944 10.2139C55.3379 8.1886 51.8543 8.37687 49.8293 10.6332L48.4958 12.1187C45.618 10.2644 42.4427 8.95058 39.0958 8.22923V3.80859H42.7277C43.7793 3.80859 44.632 2.95598 44.632 1.9043C44.632 0.852617 43.7793 0 42.7277 0H23.2509C22.1992 0 21.3466 0.852617 21.3466 1.9043C21.3466 2.95598 22.1992 3.80859 23.2509 3.80859H26.8655V8.23291C22.7695 9.11841 18.9308 10.8918 15.5808 13.4568L13.0948 10.7754L14.3755 9.51933C15.1264 8.78287 15.1381 7.5772 14.4016 6.8264C13.6653 6.0756 12.4596 6.06379 11.7087 6.80024C10.3993 8.0845 7.77989 10.6537 6.49906 11.9097C5.74813 12.6462 5.73645 13.8519 6.4729 14.6027C7.20961 15.3538 8.41541 15.3649 9.16583 14.6288L10.3746 13.4433L12.7129 15.9654C12.7048 15.9735 12.6964 15.9812 12.6884 15.9894C-5.31444 34.0309 7.50757 64.9747 32.9896 64.9999C56.1643 65.0758 69.837 38.5737 56.4508 19.7318ZM52.6637 13.1772C53.2862 12.4839 54.357 12.426 55.0505 13.0482C55.7442 13.6708 55.8019 14.7417 55.1754 15.4398L54.0139 16.7422C53.7772 16.488 53.5371 16.2362 53.2902 15.9892C52.7341 15.4332 52.1582 14.9042 51.566 14.3999L52.6637 13.1772ZM30.6741 3.80859H35.2873V7.6719C33.763 7.55003 32.1983 7.55054 30.6741 7.67343V3.80859ZM32.9893 61.1914C19.2587 61.1914 8.088 50.0208 8.088 36.2902C9.45579 3.25521 56.5277 3.26485 57.8906 36.2903C57.8906 50.0208 46.7198 61.1914 32.9893 61.1914Z" fill="#222222"/>
<path d="M32.9531 26.4043C31.9014 26.4043 31.0488 27.2569 31.0488 28.3086V36.3299C31.0488 37.3816 31.9014 38.2342 32.9531 38.2342H36.2663C38.793 38.1335 38.7911 34.5252 36.2663 34.4256H34.8574V28.3086C34.8574 27.2569 34.0048 26.4043 32.9531 26.4043Z" fill="#222222"/>
<path d="M39.9846 52.1693C38.3583 52.8868 36.6525 53.3429 34.8935 53.5337V51.5749C34.7928 49.0483 31.1846 49.0502 31.0849 51.5749V53.5332C29.4317 53.3535 27.8236 52.9399 26.2848 52.2945C25.3149 51.8876 24.199 52.3444 23.7922 53.314C23.3855 54.284 23.842 55.4 24.8118 55.8068C30.0783 58.0411 36.2986 57.9868 41.522 55.6538C42.4843 55.2291 42.9201 54.1051 42.4955 53.1428C42.0709 52.1805 40.9465 51.7452 39.9846 52.1693Z" fill="#222222"/>
<path d="M52.8184 28.9012C51.8421 26.5691 48.4612 27.8305 49.2497 30.2315C49.7497 31.5725 50.0783 32.9636 50.2331 34.3856H47.7487C45.2221 34.4862 45.224 38.0945 47.7487 38.1941H50.2326C50.0693 39.6941 49.7132 41.1589 49.166 42.5674C48.7853 43.5479 49.2714 44.6512 50.2518 45.032C51.2067 45.4104 52.3362 44.9365 52.7163 43.9463C54.5838 39.1853 54.6197 33.6881 52.8184 28.9012Z" fill="#222222"/>
<path d="M26.8123 20.0751C28.1896 19.55 29.6203 19.2067 31.0842 19.0474V21.3357C31.1849 23.8624 34.7932 23.8605 34.8928 21.3357V19.0477C36.4207 19.214 37.9118 19.5802 39.3444 20.1448C40.2979 20.5278 41.4293 20.0594 41.8143 19.0711C42.1999 18.0926 41.7191 16.9868 40.7406 16.6013C35.9088 14.6782 30.3089 14.6481 25.4557 16.5162C23.1308 17.5103 24.4173 20.8807 26.8123 20.0751Z" fill="#222222"/>
<path d="M18.0198 34.387H15.7466C15.9054 32.9286 16.2468 31.5031 16.7685 30.1304C17.1421 29.1473 16.648 28.0473 15.6649 27.6737C14.6817 27.2997 13.5819 27.7942 13.2083 28.7772C11.3816 33.5377 11.3784 39.0182 13.1992 43.781C13.5706 44.7744 14.6965 45.2579 15.6545 44.8877C16.6381 44.5152 17.1335 43.4159 16.7611 42.4324C16.2436 41.0657 15.9047 39.6469 15.7467 38.1956H18.02C20.5465 38.095 20.5446 34.4868 18.0198 34.387Z" fill="#222222"/>
</g>
<defs>
<clipPath id="clip0_4153_136">
<rect width="65" height="65" fill="white" transform="translate(0.5)"/>
</clipPath>
</defs>
</svg>
