<svg width="66" height="65" viewBox="0 0 66 65" fill="none" xmlns="http://www.w3.org/2000/svg">
<g clip-path="url(#clip0_4153_70)">
<path d="M33.0003 22.6672C35.987 22.6672 38.4168 20.2374 38.4168 17.2507C38.1193 10.0652 27.8804 10.0672 27.5839 17.2507C27.5839 20.2374 30.0137 22.6672 33.0003 22.6672ZM33.0003 15.6387C33.8893 15.6387 34.6123 16.3619 34.6123 17.2507C34.5238 19.3893 31.4765 19.3887 31.3883 17.2507C31.3883 16.3619 32.1114 15.6387 33.0003 15.6387Z" fill="#222222"/>
<path d="M64.971 38.5097L58.9281 31.8474C58.5676 31.4499 58.0559 31.2232 57.5192 31.2232H53.1768C52.1263 31.2232 51.2747 32.0749 51.2747 33.1254V34.4536H47.5941C46.3166 34.4536 45.2772 33.4144 45.2772 32.1368V29.1657C45.4842 29.1678 45.692 29.1382 45.8923 29.072C46.3713 28.9139 46.768 28.572 46.995 28.1215L50.0742 22.01C50.3012 21.5595 50.34 21.0372 50.182 20.5581C50.0239 20.0792 49.6819 19.6825 49.2314 19.4554L46.759 18.2096C46.8237 17.2763 46.7936 16.3355 46.6693 15.4095L49.0403 14.0223C49.4758 13.7676 49.7923 13.3502 49.9199 12.8622C50.0478 12.3741 49.9764 11.8553 49.7216 11.4199L46.2657 5.51324C45.7351 4.60634 44.5698 4.30159 43.6633 4.83199L41.2832 6.22458C40.3707 5.53977 39.3737 4.9676 38.3244 4.52685V1.90217C38.3244 0.851658 37.4728 0 36.4223 0H29.5789C28.5284 0 27.6767 0.851658 27.6767 1.90217V4.52584C26.3593 5.07807 25.1322 5.83386 24.0432 6.76412L21.5605 5.51324C21.1099 5.28619 20.5879 5.24759 20.1086 5.40556C19.6295 5.56365 19.2328 5.9056 19.0059 6.35613L15.9266 12.4676C15.6996 12.9181 15.6608 13.4404 15.8189 13.9193C15.9769 14.3984 16.3188 14.7951 16.7694 15.0222L19.2435 16.2687C19.1773 17.2022 19.2057 18.1432 19.3285 19.0699L16.9195 20.4797C16.0127 21.0102 15.7077 22.1752 16.2383 23.082L19.6941 28.9885C19.9345 29.3993 20.3057 29.6851 20.7235 29.8271V32.1368C20.7235 33.4144 19.6842 34.4536 18.4067 34.4536H14.7259V33.1254C14.7259 32.0749 13.8742 31.2232 12.8237 31.2232H8.48136C7.94474 31.2232 7.43301 31.45 7.07239 31.8473L1.02939 38.5096C0.369982 39.2367 0.371887 40.346 1.03409 41.0708L7.07709 47.6847C7.43746 48.0791 7.94716 48.3037 8.48136 48.3037H12.8236C13.8741 48.3037 14.7258 47.4521 14.7258 46.4016V45.1216H17.5641C21.5377 45.1216 25.1274 43.4557 27.6657 40.7894L27.6521 50.8103H26.3214C25.2708 50.8103 24.4192 51.662 24.4192 52.7125V57.0548C24.4192 57.5916 24.6458 58.1033 25.0434 58.4638L31.7057 64.5067C32.4327 65.1661 33.542 65.1641 34.2668 64.5021L40.8807 58.4592C41.2751 58.0989 41.4997 57.5892 41.4997 57.0548V52.7125C41.4997 51.662 40.648 50.8103 39.5975 50.8103H38.3181L38.3215 40.7751C40.8606 43.4496 44.4558 45.1215 48.4364 45.1215H51.2747V46.4014C51.2747 47.4519 52.1263 48.3036 53.1768 48.3036H57.5192C58.0534 48.3036 58.5632 48.079 58.9236 47.6846L64.9664 41.0707C65.6285 40.346 65.6305 39.2367 64.971 38.5097ZM23.2897 19.5938C22.9687 18.2628 22.9268 16.8506 23.1655 15.5016C23.3113 14.6747 22.898 13.8501 22.1481 13.4724L20.1797 12.4805L21.5471 9.7667L23.5231 10.7622C24.2723 11.1401 25.1804 10.9819 25.7581 10.3737C26.9573 9.11148 28.4673 8.18135 30.1253 7.68384C30.9298 7.44245 31.4808 6.7019 31.4808 5.86192V3.80433H34.5197V5.8618C34.5197 6.70177 35.0707 7.44219 35.8751 7.68371C37.325 8.11875 38.681 8.89676 39.7966 9.93355C40.4111 10.5048 41.3275 10.606 42.0522 10.1821L43.9424 9.07605L45.4771 11.699L43.5947 12.8003C42.8698 13.2244 42.5088 14.0739 42.7065 14.8901C43.0299 16.2209 43.0746 17.6306 42.8381 18.981C42.694 19.8068 43.1073 20.6296 43.8561 21.0069L45.8208 21.9968L44.4535 24.7106L42.4927 23.7227C41.7425 23.3446 40.8327 23.5037 40.2553 24.114C39.0539 25.3835 37.5394 26.3183 35.8755 26.8175C35.0709 27.0589 34.52 27.7994 34.52 28.6394V30.9849H31.4811V28.6394C31.4811 27.7994 30.9301 27.0589 30.1254 26.8175C28.6699 26.3808 27.3093 25.5985 26.1908 24.5553C25.5761 23.9822 24.6583 23.8801 23.9327 24.3044L22.0172 25.4252L20.4825 22.8023L22.401 21.6797C23.1245 21.2565 23.4856 20.4092 23.2897 19.5938ZM17.5641 41.3171H12.8236C11.7731 41.3171 10.9214 42.1688 10.9214 43.2193V44.4993H9.31994L5.01074 39.783L9.32413 35.0275H10.9215V36.3558C10.9215 37.4063 11.7732 38.2579 12.8237 38.2579H18.4065C21.7818 38.2579 24.5278 35.512 24.5278 32.1367V28.364L24.6997 28.2634C25.6171 28.9545 26.6203 29.5312 27.6765 29.9747V31.307C27.6578 36.8298 23.1292 41.3171 17.5641 41.3171ZM37.6952 56.2161L32.9788 60.5255L28.2234 56.2121V54.6147H29.5516C30.6011 54.6147 31.4524 53.7646 31.4538 52.715L31.4781 34.7893H34.5191L34.513 52.7117C34.5129 53.2162 34.7131 53.7004 35.0699 54.0571C35.4267 54.414 35.9105 54.6145 36.4151 54.6145H37.6951V56.2161H37.6952ZM56.6806 44.4994H55.079V43.2194C55.079 42.1689 54.2273 41.3173 53.1768 41.3173H48.4364C42.8731 41.3173 38.3454 36.8324 38.3242 31.3121V29.9758C39.45 29.504 40.5089 28.8818 41.4728 28.1307V32.137C41.4728 35.5122 44.2189 38.2582 47.5941 38.2582H53.1768C54.2273 38.2582 55.079 37.4065 55.079 36.356V35.0278H56.6764L60.9898 39.7832L56.6806 44.4994Z" fill="#222222"/>
</g>
<defs>
<clipPath id="clip0_4153_70">
<rect width="65" height="65" fill="white" transform="translate(0.5)"/>
</clipPath>
</defs>
</svg>
