<svg width="43" height="44" viewBox="0 0 43 44" fill="none" xmlns="http://www.w3.org/2000/svg">
<g clip-path="url(#clip0_4111_115)">
<path d="M42.5727 21.9193C40.7925 17.2909 30.7346 13.6416 19.5195 13.4102C24.1124 8.21208 28.812 5.31041 31.5 5.70205C34.1881 6.09368 33.9923 9.4938 33.7431 11.5588C33.7127 11.7924 33.7763 12.0286 33.9198 12.2154C34.0632 12.4023 34.275 12.5247 34.5085 12.5557C34.7413 12.5813 34.9751 12.516 35.1608 12.3733C35.3466 12.2307 35.4701 12.0218 35.5054 11.7902C36.1107 7.2864 34.7577 4.43813 31.7671 4.01089C27.9931 3.38783 22.2788 7.25079 17.2053 13.339C15.2502 13.3772 13.2997 13.5437 11.3664 13.8374C10.6899 9.88544 10.9569 6.71674 12.114 5.32821C13.734 3.29883 16.6713 5.07899 18.2912 6.3073C18.4787 6.43446 18.7077 6.48531 18.9314 6.4495C19.1551 6.41369 19.3568 6.29392 19.4952 6.11459C19.6337 5.93526 19.6986 5.70988 19.6766 5.48438C19.6547 5.25888 19.5476 5.05023 19.3771 4.90097C15.7634 2.15952 12.6303 1.9103 10.7255 4.26011C9.15897 6.2183 8.85635 9.77863 9.60401 14.1934C5.40283 15.1191 2.30534 16.6145 0.934611 18.6795C0.529158 19.2454 0.275387 19.9057 0.197482 20.5975C0.119577 21.2893 0.220134 21.9895 0.48957 22.6314C1.25038 24.2458 2.49468 25.5834 4.0499 26.4588C4.25055 26.5839 4.49269 26.6242 4.72305 26.5707C4.9534 26.5173 5.1531 26.3746 5.27821 26.1739C5.40333 25.9733 5.44361 25.7312 5.39019 25.5008C5.33678 25.2704 5.19404 25.0707 4.99339 24.9456C3.73899 24.2708 2.71582 23.2352 2.05611 21.9728C1.89539 21.6002 1.83546 21.1919 1.88232 20.7888C1.92919 20.3858 2.08121 20.0021 2.32314 19.6763C3.28443 18.27 5.88347 16.8459 9.87104 16.0092C10.3358 17.9226 10.9306 19.8021 11.6512 21.6345C7.82385 28.5772 6.43532 34.879 8.09087 38.2257C8.37979 38.8652 8.82755 39.4201 9.39154 39.8376C9.95553 40.2552 10.617 40.5214 11.313 40.6111C11.5737 40.6303 11.8355 40.6303 12.0962 40.6111C14.0786 40.4813 15.9874 39.8101 17.6148 38.6707C17.8154 38.5456 17.9581 38.3459 18.0116 38.1155C18.065 37.8852 18.0247 37.643 17.8996 37.4424C17.7745 37.2417 17.5748 37.099 17.3444 37.0456C17.1141 36.9922 16.8719 37.0324 16.6713 37.1576C15.1992 38.2592 13.4004 38.8358 11.5622 38.7953C11.1563 38.7479 10.77 38.5947 10.4419 38.351C10.1139 38.1073 9.8556 37.7817 9.69302 37.4068C8.64272 35.235 9.21238 30.2861 12.5591 23.7351C13.3977 25.6643 14.3488 27.5426 15.4074 29.3604C19.6797 36.7125 24.7532 41.4656 28.6696 41.8216H29.0434C29.6793 41.8299 30.3083 41.6894 30.8801 41.4112C31.452 41.133 31.9508 40.7249 32.3367 40.2194C35.0604 36.8015 34.0279 28.1677 29.8267 19.2135C29.7275 18.9987 29.5471 18.832 29.3251 18.7503C29.1031 18.6685 28.8577 18.6782 28.6429 18.7774C28.4281 18.8765 28.2614 19.0569 28.1796 19.2789C28.0978 19.5009 28.1076 19.7464 28.2067 19.9612C31.9985 28.0609 33.1734 36.2853 30.9304 39.0979C30.6806 39.4227 30.3508 39.6771 29.9732 39.8362C29.5957 39.9954 29.1833 40.0538 28.7764 40.0058C26.0883 39.81 21.3709 36.1785 16.9205 28.506C15.6493 26.3124 14.5425 24.0275 13.6094 21.6701L13.7518 21.4209C15.0013 19.2194 16.4114 17.1131 17.9708 15.1191H18.2734C30.0047 15.1191 39.4218 18.9643 40.8459 22.5424C41.6292 24.5184 39.7422 25.9781 38.0154 26.8504C37.8053 26.959 37.647 27.1466 37.5752 27.3719C37.5034 27.5973 37.5241 27.8419 37.6327 28.052C37.7413 28.2621 37.9289 28.4205 38.1543 28.4922C38.3796 28.564 38.6242 28.5433 38.8343 28.4348C42.2166 26.7792 43.5518 24.3938 42.5727 21.9193ZM12.8439 19.5517C12.4044 18.272 12.0301 16.9708 11.7224 15.6532C13.0558 15.4495 14.3985 15.3129 15.7456 15.2437C14.7309 16.5967 13.7518 18.0386 12.8439 19.5517Z" fill="#4E4E4E"/>
<path d="M21.5301 25.7989C23.4964 25.7989 25.0904 24.2049 25.0904 22.2386C25.0904 20.2722 23.4964 18.6782 21.5301 18.6782C19.5637 18.6782 17.9697 20.2722 17.9697 22.2386C17.9697 24.2049 19.5637 25.7989 21.5301 25.7989Z" fill="#4E4E4E"/>
</g>
<defs>
<clipPath id="clip0_4111_115">
<rect width="42.724" height="42.724" fill="white" transform="translate(0.171875 0.880127)"/>
</clipPath>
</defs>
</svg>
