<svg width="44" height="43" viewBox="0 0 44 43" fill="none" xmlns="http://www.w3.org/2000/svg">
<g clip-path="url(#clip0_4111_149)">
<path d="M36.0666 8.37258C36.0371 8.15687 35.8481 8.03754 35.6924 8.02453C35.5366 8.01151 32.4953 7.96528 32.4953 7.96528C32.4953 7.96528 29.9518 5.49505 29.7006 5.24363C29.4493 4.99221 28.9585 5.06848 28.768 5.12455L27.4899 5.52025C27.3563 5.08617 27.1592 4.55304 26.8783 4.01732C25.9726 2.28967 24.6467 1.37519 23.0441 1.37286H23.0387C22.9277 1.37286 22.8169 1.38329 22.7061 1.39338C22.6595 1.33642 22.6112 1.28085 22.5612 1.22674C21.8636 0.479993 20.9676 0.116172 19.8953 0.147631C17.8251 0.20696 15.7646 1.70171 14.0933 4.35627C12.9168 6.22461 12.023 8.57168 11.7689 10.3882C9.39251 11.1241 7.72986 11.639 7.6939 11.6503C6.49437 12.0267 6.45665 12.0644 6.29936 13.1945C6.18028 14.0501 3.04199 38.3208 3.04199 38.3208L29.3468 42.8696L40.7474 40.0359C40.7474 40.0359 36.0961 8.58828 36.0666 8.37258ZM13.2425 9.93175C13.9538 6.60596 16.7405 1.61652 19.9351 1.52464C20.421 1.51446 20.8303 1.62111 21.1799 1.85116C20.6208 2.14147 20.08 2.5587 19.5727 3.10276C18.258 4.51315 17.2509 6.70309 16.8493 8.81484L13.2425 9.93175ZM22.7548 6.9863L18.3631 8.34612C18.788 6.72078 19.5923 5.10252 20.5806 4.04235C20.9483 3.64799 21.4626 3.2079 22.0716 2.95665C22.6445 4.1505 22.7686 5.84293 22.7548 6.9863ZM24.1308 6.56023C24.1155 5.51207 23.9903 4.0542 23.5021 2.79393C25.0726 3.09149 25.8459 4.86854 26.1723 5.92813L24.1308 6.56023Z" fill="#4E4E4E"/>
<path d="M35.6945 8.02442C35.5387 8.0114 32.4975 7.96517 32.4975 7.96517C32.4975 7.96517 29.954 5.49494 29.7027 5.24352C29.609 5.14973 29.482 5.10175 29.3496 5.08105L29.3503 42.8692L40.7496 40.0358C40.7496 40.0358 36.0983 8.58817 36.0688 8.37247C36.0392 8.15676 35.8503 8.03744 35.6945 8.02442Z" fill="#4E4E4E"/>
<path d="M23.0312 13.8863L21.7071 18.8396C21.7071 18.8396 20.2301 18.1671 18.479 18.2776C15.9114 18.4398 15.8842 20.0594 15.9098 20.4652C16.0496 22.6806 21.8776 23.1647 22.2052 28.3535C22.463 32.4358 20.0399 35.2282 16.5485 35.4487C12.3588 35.7132 10.0518 33.241 10.0518 33.241L10.9395 29.4638C10.9395 29.4638 13.2612 31.2155 15.1197 31.0982C16.3337 31.0215 16.7674 30.0342 16.7234 29.3359C16.5409 26.446 11.7952 26.6162 11.4954 21.868C11.243 17.8716 13.8672 13.8231 19.6576 13.4574C21.8887 13.3167 23.0312 13.8863 23.0312 13.8863Z" fill="white"/>
</g>
<defs>
<clipPath id="clip0_4111_149">
<rect width="42.724" height="42.724" fill="white" transform="translate(0.53125 0.145752)"/>
</clipPath>
</defs>
</svg>
