<svg width="44" height="43" viewBox="0 0 44 43" fill="none" xmlns="http://www.w3.org/2000/svg">
<path d="M33.4293 0.145752H10.7322C5.20191 0.145752 0.71875 4.62892 0.71875 10.1592V32.8563C0.71875 38.3865 5.20191 42.8697 10.7322 42.8697H33.4293C38.9595 42.8697 43.4427 38.3865 43.4427 32.8563V10.1592C43.4427 4.62892 38.9595 0.145752 33.4293 0.145752Z" fill="#4E4E4E"/>
<path d="M28.9407 17.4082C28.9407 17.4082 26.6351 24.6315 26.4648 25.2448C26.3967 24.6429 24.7157 11.6611 24.7157 11.6611C20.786 11.6611 18.6962 14.455 17.583 17.4082C17.583 17.4082 14.7777 24.6542 14.5506 25.2562C14.5393 24.6883 14.119 17.4763 14.119 17.4763C13.8804 13.8531 10.5753 11.6611 7.89502 11.6611L11.1207 31.3212C15.232 31.3098 17.4468 28.5272 18.6052 25.5629C18.6052 25.5629 21.0699 19.1685 21.1722 18.8847C21.1949 19.1572 22.9439 31.3212 22.9439 31.3212C27.0667 31.3212 29.2929 28.7203 30.4853 25.8695L36.2664 11.6611C32.1889 11.6611 30.0424 14.4437 28.9407 17.4082Z" fill="white"/>
</svg>
