<svg width="44" height="43" viewBox="0 0 44 43" fill="none" xmlns="http://www.w3.org/2000/svg">
<path d="M13.4416 13.3297H11.0822L17.5145 31.5122L21.1155 21.2219L18.3236 13.3297H15.8343V11.5972H26.8579V13.3297H24.2764L30.7086 31.5122L33.0207 24.9048C36.0537 16.4395 30.5348 13.8025 30.5348 11.9133C30.5348 10.024 32.0664 8.49258 33.9555 8.49258C34.0577 8.49258 34.157 8.49811 34.2542 8.50718C31.0532 5.4854 26.7369 3.63232 21.9875 3.63232C15.7816 3.63232 10.3151 6.79563 7.1106 11.5972H13.4414V13.3297H13.4416Z" fill="#4E4E4E"/>
<path d="M4.11304 21.5064C4.11304 28.3495 7.95928 34.2934 13.6073 37.297L5.54104 14.4956C4.62219 16.6483 4.11304 19.0178 4.11304 21.5064Z" fill="#4E4E4E"/>
<path d="M37.5423 12.7009C37.7979 14.2063 37.7205 15.8983 37.3282 17.5969H37.3993L37.129 18.3691C36.9689 18.9268 36.7672 19.4972 36.5382 20.0577L30.3879 37.2877C36.0241 34.2806 39.8605 28.343 39.8605 21.5086C39.8605 18.3061 39.0174 15.3007 37.5423 12.7009Z" fill="#4E4E4E"/>
<path d="M16.4744 38.5132C18.2108 39.0757 20.063 39.3808 21.9869 39.3808C23.822 39.3808 25.5922 39.1039 27.2587 38.5901L22.0303 23.8108L16.4744 38.5132Z" fill="#4E4E4E"/>
<path d="M37.0922 6.40251C33.0575 2.36778 27.6929 0.145752 21.9869 0.145752C16.2809 0.145752 10.9165 2.36778 6.88176 6.40251C2.84703 10.4372 0.625 15.8017 0.625 21.5078C0.625 27.2138 2.84703 32.5782 6.88176 36.6129C10.9165 40.6477 16.281 42.8697 21.987 42.8697C27.693 42.8697 33.0575 40.6477 37.0923 36.6129C41.127 32.5782 43.3491 27.2137 43.3491 21.5078C43.349 15.8017 41.1269 10.4372 37.0922 6.40251ZM21.9869 41.3628C11.0388 41.3628 2.13193 32.4559 2.13193 21.5078C2.13193 10.5597 11.0388 1.65268 21.9869 1.65268C32.935 1.65268 41.8419 10.5597 41.8419 21.5078C41.8419 32.4559 32.9351 41.3628 21.9869 41.3628Z" fill="#4E4E4E"/>
</svg>
